<?xml version="1.0" encoding="UTF-8" standalone="no"?>
<svg
   id="Layer_1"
   version="1.1"
   viewBox="0 0 400 399.99999"
   sodipodi:docname="cobalt-text-logo.svg"
   width="400"
   height="400"
   inkscape:version="1.4.2 (f4327f4, 2025-05-13)"
   inkscape:export-filename="cobalt-text-logo512.png"
   inkscape:export-xdpi="122.88"
   inkscape:export-ydpi="122.88"
   xmlns:inkscape="http://www.inkscape.org/namespaces/inkscape"
   xmlns:sodipodi="http://sodipodi.sourceforge.net/DTD/sodipodi-0.dtd"
   xmlns="http://www.w3.org/2000/svg"
   xmlns:svg="http://www.w3.org/2000/svg">
  <sodipodi:namedview
     id="namedview128"
     pagecolor="#ffffff"
     bordercolor="#000000"
     borderopacity="0.25"
     inkscape:showpageshadow="2"
     inkscape:pageopacity="0.0"
     inkscape:pagecheckerboard="0"
     inkscape:deskcolor="#d1d1d1"
     inkscape:zoom="3.7498005"
     inkscape:cx="100.00532"
     inkscape:cy="156.675"
     inkscape:window-width="2560"
     inkscape:window-height="1377"
     inkscape:window-x="2552"
     inkscape:window-y="-8"
     inkscape:window-maximized="1"
     inkscape:current-layer="Layer_1" />
  <!-- Generator: Adobe Illustrator 29.6.1, SVG Export Plug-In . SVG Version: 2.1.1 Build 9)  -->
  <defs
     id="defs1">
    <style
       id="style1">
      .st0, .st1, .st2, .st3 {
        fill: #1d184c;
      }

      .st0, .st4 {
        opacity: .75;
      }

      .st5 {
        opacity: .5;
      }

      .st5, .st6, .st7, .st4, .st8, .st9, .st10 {
        fill: #164ca0;
      }

      .st11 {
        fill: #fff;
      }

      .st7 {
        fill-opacity: .75;
      }

      .st12 {
        fill: #f4f5f5;
      }

      .st2 {
        opacity: .25;
      }

      .st8 {
        fill-opacity: .5;
      }

      .st9 {
        fill-opacity: .1;
      }

      .st10 {
        fill-opacity: .25;
      }

      .st3 {
        opacity: .9;
      }
    </style>
  </defs>
  <rect
     class="st11"
     x="159.87"
     y="120.55"
     width="80.260002"
     height="158.89999"
     id="rect1" />
  <g
     id="g67"
     transform="translate(100,43.325)">
    <g
       id="g1">
      <polygon
         class="st11"
         points="100,296.77 142.82,272.05 185.64,247.33 185.64,197.88 185.64,197.88 142.82,173.16 142.82,222.6 100,247.33 57.18,222.6 57.18,173.16 14.36,148.43 14.36,197.88 14.36,247.33 57.18,272.05 "
         id="polygon1" />
      <path
         class="st11"
         d="M 100,313.35 0,255.62 V 123.57 l 71.53,41.3 v 49.45 L 100,230.75 128.47,214.32 V 148.3 L 200,189.6 v 66.02 z M 28.71,239.04 100,280.2 171.29,239.04 v -32.87 l -14.11,-8.15 v 32.87 L 100,263.9 42.82,230.89 v -49.45 l -14.11,-8.15 v 65.74 z"
         id="path1" />
    </g>
    <polygon
       class="st12"
       points="153.53,179.34 174.94,191.73 174.94,241.15 100,284.41 25.06,241.15 25.06,166.98 46.47,179.34 46.47,228.79 100,259.69 153.53,228.79 "
       id="polygon2" />
    <g
       id="g17">
      <polygon
         class="st6"
         points="100,247.33 57.18,272.05 100,296.77 "
         id="polygon3" />
      <polygon
         class="st6"
         points="100,296.77 142.82,272.05 100,247.33 "
         id="polygon4" />
      <polygon
         class="st7"
         points="142.82,222.6 100,247.33 142.82,272.05 "
         id="polygon5" />
      <polygon
         class="st8"
         points="142.82,272.05 185.64,247.33 142.82,222.6 "
         id="polygon6" />
      <polygon
         class="st5"
         points="57.18,222.6 14.36,247.33 57.18,272.05 "
         id="polygon7" />
      <g
         id="g9">
        <polygon
           class="st6"
           points="57.18,272.05 100,247.33 57.18,222.6 "
           id="polygon8" />
        <polygon
           class="st2"
           points="57.18,272.05 100,247.33 57.18,222.6 "
           id="polygon9" />
      </g>
      <g
         id="g11">
        <polygon
           class="st4"
           points="57.18,222.6 14.36,197.88 14.36,247.33 "
           id="polygon10" />
        <polygon
           class="st0"
           points="57.18,222.6 14.36,197.88 14.36,247.33 "
           id="polygon11" />
      </g>
      <polygon
         class="st1"
         points="57.18,173.16 14.36,148.43 14.36,197.88 "
         id="polygon12" />
      <g
         id="g14">
        <polygon
           class="st4"
           points="14.36,197.88 57.18,222.6 57.18,173.16 "
           id="polygon13" />
        <polygon
           class="st3"
           points="14.36,197.88 57.18,222.6 57.18,173.16 "
           id="polygon14" />
      </g>
      <polygon
         class="st11"
         points="142.82,173.16 185.64,197.88 "
         id="polygon15" />
      <polygon
         class="st10"
         points="142.82,222.6 185.64,247.33 185.64,197.88 "
         id="polygon16" />
      <polygon
         class="st9"
         points="185.64,197.88 142.82,173.16 142.82,222.6 "
         id="polygon17" />
    </g>
    <polygon
       class="st12"
       points="153.53,179.34 174.94,191.73 174.94,241.15 100,284.41 25.06,241.15 25.06,166.98 46.47,179.34 46.47,228.79 100,259.69 153.53,228.79 "
       id="polygon18" />
    <g
       id="g33">
      <polygon
         class="st6"
         points="100,247.33 57.18,272.05 100,296.77 "
         id="polygon19" />
      <polygon
         class="st6"
         points="100,296.77 142.82,272.05 100,247.33 "
         id="polygon20" />
      <polygon
         class="st7"
         points="142.82,222.6 100,247.33 142.82,272.05 "
         id="polygon21" />
      <polygon
         class="st8"
         points="142.82,272.05 185.64,247.33 142.82,222.6 "
         id="polygon22" />
      <polygon
         class="st5"
         points="57.18,222.6 14.36,247.33 57.18,272.05 "
         id="polygon23" />
      <g
         id="g25">
        <polygon
           class="st6"
           points="57.18,272.05 100,247.33 57.18,222.6 "
           id="polygon24" />
        <polygon
           class="st2"
           points="57.18,272.05 100,247.33 57.18,222.6 "
           id="polygon25" />
      </g>
      <g
         id="g27">
        <polygon
           class="st4"
           points="57.18,222.6 14.36,197.88 14.36,247.33 "
           id="polygon26" />
        <polygon
           class="st0"
           points="57.18,222.6 14.36,197.88 14.36,247.33 "
           id="polygon27" />
      </g>
      <polygon
         class="st1"
         points="57.18,173.16 14.36,148.43 14.36,197.88 "
         id="polygon28" />
      <g
         id="g30">
        <polygon
           class="st4"
           points="14.36,197.88 57.18,222.6 57.18,173.16 "
           id="polygon29" />
        <polygon
           class="st3"
           points="14.36,197.88 57.18,222.6 57.18,173.16 "
           id="polygon30" />
      </g>
      <polygon
         class="st11"
         points="142.82,173.16 185.64,197.88 "
         id="polygon31" />
      <polygon
         class="st10"
         points="142.82,222.6 185.64,247.33 185.64,197.88 "
         id="polygon32" />
      <polygon
         class="st9"
         points="185.64,197.88 142.82,173.16 142.82,222.6 "
         id="polygon33" />
    </g>
    <g
       id="g34">
      <polygon
         class="st11"
         points="100,16.58 57.18,41.3 14.36,66.02 14.36,115.47 14.36,115.47 57.18,140.19 57.18,90.75 100,66.02 142.82,90.75 142.82,140.19 185.64,164.92 185.64,115.47 185.64,66.02 142.82,41.3 "
         id="polygon34" />
      <path
         class="st11"
         d="m 200,189.78 -71.53,-41.3 V 99.03 L 100,82.6 71.53,99.03 v 66.02 L 0,123.76 V 57.73 L 100,0 200,57.73 Z m -42.82,-57.88 14.11,8.15 V 74.31 L 100,33.15 28.71,74.31 v 32.87 l 14.11,8.15 V 82.46 L 100,49.45 157.18,82.46 v 49.45 z"
         id="path34" />
    </g>
    <polygon
       class="st12"
       points="46.47,134.01 25.06,121.62 25.06,72.2 100,28.94 174.94,72.2 174.94,146.37 153.53,134.01 153.53,84.57 100,53.66 46.47,84.57 "
       id="polygon35" />
    <g
       id="g50">
      <polygon
         class="st6"
         points="100,66.02 142.82,41.3 100,16.58 "
         id="polygon36" />
      <polygon
         class="st6"
         points="100,16.58 57.18,41.3 100,66.02 "
         id="polygon37" />
      <polygon
         class="st7"
         points="57.18,90.75 100,66.02 57.18,41.3 "
         id="polygon38" />
      <polygon
         class="st8"
         points="57.18,41.3 14.36,66.02 57.18,90.75 "
         id="polygon39" />
      <polygon
         class="st5"
         points="142.82,90.75 185.64,66.02 142.82,41.3 "
         id="polygon40" />
      <g
         id="g42">
        <polygon
           class="st6"
           points="142.82,41.3 100,66.02 142.82,90.75 "
           id="polygon41" />
        <polygon
           class="st2"
           points="142.82,41.3 100,66.02 142.82,90.75 "
           id="polygon42" />
      </g>
      <g
         id="g44">
        <polygon
           class="st4"
           points="142.82,90.75 185.64,115.47 185.64,66.02 "
           id="polygon43" />
        <polygon
           class="st0"
           points="142.82,90.75 185.64,115.47 185.64,66.02 "
           id="polygon44" />
      </g>
      <polygon
         class="st1"
         points="142.82,140.19 185.64,164.92 185.64,115.47 "
         id="polygon45" />
      <g
         id="g47">
        <polygon
           class="st4"
           points="185.64,115.47 142.82,90.75 142.82,140.19 "
           id="polygon46" />
        <polygon
           class="st3"
           points="185.64,115.47 142.82,90.75 142.82,140.19 "
           id="polygon47" />
      </g>
      <polygon
         class="st11"
         points="57.18,140.19 14.36,115.47 "
         id="polygon48" />
      <polygon
         class="st10"
         points="57.18,90.75 14.36,66.02 14.36,115.47 "
         id="polygon49" />
      <polygon
         class="st9"
         points="14.36,115.47 57.18,140.19 57.18,90.75 "
         id="polygon50" />
    </g>
    <polygon
       class="st12"
       points="46.47,134.01 25.06,121.62 25.06,72.2 100,28.94 174.94,72.2 174.94,146.37 153.53,134.01 153.53,84.57 100,53.66 46.47,84.57 "
       id="polygon51" />
    <g
       id="g66">
      <polygon
         class="st6"
         points="100,66.02 142.82,41.3 100,16.58 "
         id="polygon52" />
      <polygon
         class="st6"
         points="100,16.58 57.18,41.3 100,66.02 "
         id="polygon53" />
      <polygon
         class="st7"
         points="57.18,90.75 100,66.02 57.18,41.3 "
         id="polygon54" />
      <polygon
         class="st8"
         points="57.18,41.3 14.36,66.02 57.18,90.75 "
         id="polygon55" />
      <polygon
         class="st5"
         points="142.82,90.75 185.64,66.02 142.82,41.3 "
         id="polygon56" />
      <g
         id="g58">
        <polygon
           class="st6"
           points="142.82,41.3 100,66.02 142.82,90.75 "
           id="polygon57" />
        <polygon
           class="st2"
           points="142.82,41.3 100,66.02 142.82,90.75 "
           id="polygon58" />
      </g>
      <g
         id="g60">
        <polygon
           class="st4"
           points="142.82,90.75 185.64,115.47 185.64,66.02 "
           id="polygon59" />
        <polygon
           class="st0"
           points="142.82,90.75 185.64,115.47 185.64,66.02 "
           id="polygon60" />
      </g>
      <polygon
         class="st1"
         points="142.82,140.19 185.64,164.92 185.64,115.47 "
         id="polygon61" />
      <g
         id="g63">
        <polygon
           class="st4"
           points="185.64,115.47 142.82,90.75 142.82,140.19 "
           id="polygon62" />
        <polygon
           class="st3"
           points="185.64,115.47 142.82,90.75 142.82,140.19 "
           id="polygon63" />
      </g>
      <polygon
         class="st11"
         points="57.18,140.19 14.36,115.47 "
         id="polygon64" />
      <polygon
         class="st10"
         points="57.18,90.75 14.36,66.02 14.36,115.47 "
         id="polygon65" />
      <polygon
         class="st9"
         points="14.36,115.47 57.18,140.19 57.18,90.75 "
         id="polygon66" />
    </g>
  </g>
  <g
     id="g128"
     transform="translate(98.835,46.41)">
    <g
       id="g104">
      <g
         id="g68">
        <path
           class="st11"
           d="m 13.42,166.84 c -2.05,-1.18 -3.52,-2.83 -4.41,-4.95 -0.9,-2.12 -1.34,-4.67 -1.34,-7.64 v -26.47 c 0,-2.97 0.45,-5.5 1.34,-7.6 0.89,-2.1 2.37,-3.75 4.41,-4.95 2.05,-1.2 4.76,-1.8 8.13,-1.8 3.37,0 6.16,0.6 8.21,1.8 2.05,1.2 3.52,2.85 4.41,4.95 0.89,2.1 1.34,4.63 1.34,7.6 v 10.74 H 25.23 v -11.36 c 0,-1.58 -0.26,-2.72 -0.77,-3.41 -0.51,-0.69 -1.46,-1.04 -2.84,-1.04 -1.38,0 -2.34,0.35 -2.88,1.04 -0.54,0.69 -0.81,1.83 -0.81,3.41 v 27.78 c 0,1.53 0.26,2.65 0.77,3.34 0.51,0.69 1.46,1.04 2.84,1.04 1.38,0 2.34,-0.33 2.88,-1 0.54,-0.66 0.81,-1.79 0.81,-3.38 v -11.43 h 10.28 v 10.74 c 0,2.97 -0.44,5.51 -1.3,7.64 -0.87,2.12 -2.34,3.77 -4.41,4.95 -2.07,1.18 -4.82,1.77 -8.25,1.77 -3.43,0 -6.09,-0.59 -8.13,-1.77 z"
           id="path67" />
        <path
           class="st11"
           d="m 21.55,172.62 c -4.07,0 -7.48,-0.77 -10.14,-2.3 -2.82,-1.62 -4.87,-3.93 -6.11,-6.87 -1.1,-2.61 -1.66,-5.7 -1.66,-9.2 v -26.47 c 0,-3.5 0.56,-6.59 1.66,-9.17 1.24,-2.89 3.28,-5.19 6.07,-6.84 2.66,-1.56 6.09,-2.36 10.17,-2.36 4.08,0 7.58,0.79 10.25,2.36 2.79,1.64 4.84,3.94 6.07,6.84 1.11,2.59 1.67,5.68 1.67,9.18 v 26.47 c 0,3.48 -0.54,6.56 -1.6,9.16 -1.22,2.97 -3.29,5.3 -6.15,6.92 -2.67,1.52 -6.12,2.29 -10.23,2.29 z m 0,-55.17 c -2.63,0 -4.69,0.42 -6.1,1.25 -1.3,0.76 -2.2,1.76 -2.75,3.06 -0.68,1.59 -1.02,3.61 -1.02,6.02 v 26.47 c 0,2.42 0.35,4.46 1.03,6.07 0.56,1.32 1.42,2.28 2.71,3.03 v 0 c 1.42,0.82 3.48,1.23 6.13,1.23 2.65,0 4.81,-0.42 6.26,-1.24 1.3,-0.74 2.15,-1.68 2.68,-2.98 0.67,-1.63 1,-3.68 1,-6.11 v -6.72 h -2.24 v 7.41 c 0,2.56 -0.56,4.49 -1.7,5.91 -0.91,1.13 -2.7,2.49 -6,2.49 -3.3,0 -5.17,-1.45 -6.07,-2.66 -1.05,-1.41 -1.56,-3.29 -1.56,-5.73 v -27.78 c 0,-2.53 0.54,-4.45 1.65,-5.88 0.92,-1.18 2.71,-2.59 6.05,-2.59 3.34,0 5.17,1.45 6.07,2.66 1.05,1.42 1.56,3.32 1.56,5.81 v 7.34 h 2.24 v -6.72 c 0,-2.41 -0.34,-4.43 -1.02,-6.02 -0.55,-1.3 -1.45,-2.3 -2.75,-3.06 -1.41,-0.83 -3.49,-1.25 -6.17,-1.25 z m -0.46,8.45 z"
           id="path68" />
      </g>
      <g
         id="g70">
        <path
           class="st11"
           d="m 46.76,164.81 c -2.12,-2.53 -3.18,-6.05 -3.18,-10.55 v -26.47 c 0,-4.55 1.06,-8.08 3.18,-10.59 2.12,-2.51 5.69,-3.76 10.7,-3.76 5.01,0 8.58,1.25 10.7,3.76 2.12,2.51 3.18,6.04 3.18,10.59 v 26.47 c 0,4.5 -1.06,8.02 -3.18,10.55 -2.12,2.53 -5.69,3.8 -10.7,3.8 -5.01,0 -8.58,-1.27 -10.7,-3.8 z m 13.5,-6.49 c 0.54,-0.66 0.81,-1.82 0.81,-3.45 v -27.7 c 0,-1.58 -0.26,-2.72 -0.77,-3.41 -0.51,-0.69 -1.46,-1.04 -2.84,-1.04 -1.38,0 -2.33,0.35 -2.84,1.04 -0.51,0.69 -0.77,1.83 -0.77,3.41 v 27.78 c 0,1.53 0.26,2.65 0.77,3.34 0.51,0.69 1.46,1.04 2.84,1.04 1.38,0 2.26,-0.33 2.8,-1 z"
           id="path69" />
        <path
           class="st11"
           d="m 57.46,172.62 c -6.24,0 -10.87,-1.76 -13.79,-5.24 v 0 c -2.74,-3.26 -4.12,-7.68 -4.12,-13.13 v -26.47 c 0,-5.51 1.39,-9.95 4.14,-13.19 2.91,-3.44 7.55,-5.18 13.77,-5.18 6.22,0 10.86,1.74 13.77,5.18 2.75,3.25 4.14,7.68 4.14,13.19 v 26.47 c 0,5.45 -1.39,9.87 -4.12,13.13 -2.91,3.48 -7.55,5.24 -13.79,5.24 z m 0,-55.17 c -3.75,0 -6.32,0.79 -7.64,2.34 -1.48,1.75 -2.23,4.44 -2.23,7.99 v 26.47 c 0,3.51 0.76,6.19 2.25,7.97 v 0 c 1.31,1.57 3.88,2.36 7.62,2.36 3.74,0 6.31,-0.79 7.63,-2.36 1.49,-1.78 2.24,-4.46 2.24,-7.97 v -26.47 c 0,-3.55 -0.75,-6.24 -2.23,-7.99 -1.31,-1.55 -3.88,-2.34 -7.64,-2.34 z m 0,45.89 c -3.39,0 -5.17,-1.45 -6.07,-2.66 -1.05,-1.41 -1.56,-3.29 -1.56,-5.73 v -27.78 c 0,-2.5 0.51,-4.4 1.56,-5.81 0.9,-1.21 2.68,-2.66 6.07,-2.66 3.39,0 5.17,1.45 6.07,2.66 1.05,1.42 1.56,3.32 1.56,5.81 v 27.7 c 0,2.61 -0.56,4.57 -1.7,5.98 -0.92,1.14 -2.69,2.49 -5.93,2.49 z m 0.53,-7.22 z"
           id="path70" />
      </g>
      <g
         id="g72">
        <path
           class="st11"
           d="m 79.64,114.12 h 13.58 c 4.96,0 8.52,1.07 10.67,3.22 2.15,2.15 3.22,5.04 3.22,8.67 v 5.76 c 0,2.56 -0.64,4.67 -1.92,6.33 -1.28,1.66 -3.27,2.49 -5.99,2.49 h -0.61 v 0.15 h 0.54 c 3.07,0 5.22,0.78 6.45,2.34 1.23,1.56 1.84,3.44 1.84,5.64 v 6.75 c 0,3.63 -1.1,6.6 -3.3,8.9 -2.2,2.3 -5.73,3.45 -10.59,3.45 H 79.64 V 114.1 Z m 16.65,43.4 c 0.56,-0.69 0.84,-1.83 0.84,-3.41 v -5.91 c 0,-1.23 -0.27,-2.16 -0.81,-2.8 -0.54,-0.64 -1.55,-0.96 -3.03,-0.96 h -5.22 v -7.67 h 4.91 c 1.53,0 2.57,-0.28 3.11,-0.84 0.54,-0.56 0.81,-1.51 0.81,-2.84 v -5.76 c 0,-1.33 -0.28,-2.31 -0.84,-2.95 -0.56,-0.64 -1.48,-0.96 -2.76,-0.96 h -3.45 v 35.15 h 3.68 c 1.28,0 2.2,-0.35 2.76,-1.04 z"
           id="path71" />
        <path
           class="st11"
           d="M 93.53,171.86 H 75.62 v -61.75 h 17.6 c 6.05,0 10.59,1.48 13.51,4.4 2.92,2.92 4.4,6.79 4.4,11.51 v 5.76 c 0,3.36 -0.87,6.24 -2.6,8.58 0.07,0.08 0.14,0.17 0.21,0.25 1.79,2.28 2.7,5.01 2.7,8.13 v 6.75 c 0,4.68 -1.48,8.61 -4.41,11.68 -2.98,3.12 -7.52,4.7 -13.5,4.7 z m -9.87,-8.04 h 9.87 c 3.7,0 6.28,-0.74 7.68,-2.21 1.47,-1.54 2.19,-3.54 2.19,-6.12 v -6.75 c 0,-1.3 -0.31,-2.3 -0.98,-3.15 -0.27,-0.34 -0.92,-0.59 -1.82,-0.72 0.37,0.98 0.56,2.1 0.56,3.33 v 5.91 c 0,2.56 -0.57,4.51 -1.75,5.95 v 0 c -0.94,1.15 -2.72,2.52 -5.88,2.52 h -7.7 v -14.12 h -1.76 v -15.71 h 1.76 V 119.4 h 7.47 c 3.09,0 4.85,1.26 5.78,2.32 1.23,1.4 1.85,3.28 1.85,5.61 v 5.76 c 0,1.29 -0.19,2.43 -0.56,3.41 1.14,-0.19 1.5,-0.66 1.64,-0.84 0.73,-0.95 1.08,-2.22 1.08,-3.88 v -5.76 c 0,-2.55 -0.67,-4.45 -2.05,-5.83 -1.34,-1.34 -4.04,-2.05 -7.82,-2.05 h -9.56 z m 10.21,-31.15 z"
           id="path72" />
      </g>
      <g
         id="g74">
        <path
           class="st11"
           d="M 123.76,167.84 H 113.4 l 5.22,-44.58 8.29,0.15 z m -7.67,-53.72 h 20.1 l 6.29,53.72 h -10.59 l -3.07,-44.28 h -12.74 v -9.44 z m 6.9,30.77 h 9.98 v 8.75 h -9.98 z"
           id="path73" />
        <path
           class="st11"
           d="m 147,171.86 h -18.86 l -0.32,-4.55 -0.32,4.55 h -18.62 l 5.18,-44.28 h -2 V 110.1 h 27.7 l 7.23,61.75 z m -11.35,-8.04 h 2.32 l -0.98,-8.35 v 2.19 h -1.77 z m -17.73,0 h 2.1 l 0.44,-6.16 h -1.48 v -2.85 l -1.05,9.01 z m 16.14,-22.95 h 1.22 l -2.66,-22.73 h -12.51 v 1.12 l 11.11,0.21 v 0.07 c 0,0 1.36,0 1.36,0 z m -13.45,0 h 1.04 l 0.94,-13.29 h -0.42 z"
           id="path74" />
      </g>
      <g
         id="g76">
        <path
           class="st11"
           d="m 149.39,114.12 h 10.21 v 44.43 h 8.82 v 9.29 h -19.03 z"
           id="path75" />
        <path
           class="st11"
           d="m 172.44,171.86 h -27.07 v -61.75 h 18.25 v 44.43 h 8.82 z m -19.03,-8.04 h 10.99 v -1.25 h -8.82 v -44.43 h -2.17 z"
           id="path76" />
      </g>
      <g
         id="g78">
        <path
           class="st11"
           d="m 177.55,123.41 h -6.68 v -9.29 h 23.79 v 9.29 h -6.83 v 44.43 h -10.28 z"
           id="path77" />
        <path
           class="st11"
           d="m 191.86,171.86 h -18.32 v -44.43 h -6.68 v -17.32 h 31.83 v 17.32 h -6.83 z m -10.29,-8.04 h 2.24 v -44.43 h 6.83 v -1.25 h -15.75 v 1.25 h 6.68 z"
           id="path78" />
      </g>
      <g
         id="g80">
        <path
           class="st12"
           d="m 8.27,194.75 c -0.41,-0.47 -0.62,-1.19 -0.62,-2.14 v -4.36 h 1.43 v 4.38 c 0,0.57 0.09,0.97 0.27,1.22 0.18,0.25 0.49,0.37 0.93,0.37 0.44,0 0.75,-0.12 0.95,-0.37 0.19,-0.25 0.29,-0.65 0.29,-1.22 v -4.17 c 0,-0.49 -0.1,-0.86 -0.29,-1.11 -0.19,-0.25 -0.56,-0.51 -1.11,-0.78 L 9.46,186.3 c -0.64,-0.29 -1.1,-0.63 -1.37,-1.03 -0.27,-0.39 -0.41,-0.92 -0.41,-1.58 v -4.93 c 0,-0.95 0.2,-1.67 0.6,-2.15 0.4,-0.48 1.07,-0.73 2,-0.73 0.93,0 1.61,0.25 2.03,0.74 0.42,0.49 0.63,1.21 0.63,2.14 v 5.02 h -1.43 v -5.04 c 0,-0.58 -0.1,-1 -0.29,-1.23 -0.19,-0.24 -0.51,-0.36 -0.95,-0.36 -0.44,0 -0.73,0.12 -0.93,0.36 -0.2,0.24 -0.3,0.65 -0.3,1.23 v 4.71 c 0,0.51 0.1,0.88 0.29,1.11 0.19,0.23 0.57,0.48 1.14,0.75 l 0.66,0.3 c 0.66,0.27 1.12,0.61 1.4,1 0.27,0.39 0.41,0.92 0.41,1.58 v 4.41 c 0,0.93 -0.21,1.64 -0.62,2.12 -0.41,0.48 -1.09,0.73 -2.04,0.73 -0.95,0 -1.6,-0.24 -2.01,-0.71 z"
           id="path79" />
        <path
           class="st11"
           d="m 10.28,197.76 c -2.02,0 -3.16,-0.82 -3.75,-1.51 v 0 c -0.78,-0.9 -1.18,-2.13 -1.18,-3.64 v -6.65 h 0.48 c -0.3,-0.65 -0.46,-1.41 -0.46,-2.25 v -4.93 c 0,-1.5 0.38,-2.71 1.13,-3.62 0.59,-0.71 1.72,-1.56 3.77,-1.56 2.05,0 3.18,0.84 3.78,1.55 0.78,0.92 1.18,2.14 1.18,3.63 v 7.31 h -0.4 c 0.26,0.62 0.4,1.33 0.4,2.12 v 4.41 c 0,1.49 -0.39,2.7 -1.16,3.61 -0.59,0.7 -1.74,1.53 -3.79,1.53 z"
           id="path80" />
      </g>
      <g
         id="g82">
        <path
           class="st12"
           d="m 19.69,194.67 c -0.41,-0.49 -0.62,-1.19 -0.62,-2.08 v -13.87 c 0,-0.9 0.21,-1.59 0.62,-2.1 0.41,-0.5 1.09,-0.75 2.04,-0.75 0.95,0 1.58,0.25 1.99,0.75 0.41,0.5 0.62,1.2 0.62,2.1 v 13.87 c 0,0.9 -0.21,1.59 -0.62,2.08 -0.41,0.49 -1.08,0.74 -2.01,0.74 -0.93,0 -1.6,-0.25 -2.01,-0.74 z m 2.98,-0.92 c 0.16,-0.23 0.25,-0.6 0.25,-1.11 v -13.98 c 0,-0.53 -0.08,-0.91 -0.25,-1.14 -0.16,-0.23 -0.47,-0.34 -0.93,-0.34 -0.46,0 -0.8,0.11 -0.97,0.34 -0.17,0.23 -0.26,0.61 -0.26,1.14 v 13.98 c 0,0.51 0.09,0.88 0.26,1.11 0.17,0.23 0.5,0.34 0.97,0.34 0.47,0 0.77,-0.11 0.93,-0.34 z"
           id="path81" />
        <path
           class="st11"
           d="m 21.71,197.7 c -2.04,0 -3.18,-0.85 -3.78,-1.57 v 0 c 0,0 0,0 0,0 v 0 c -0.76,-0.92 -1.15,-2.11 -1.15,-3.55 v -13.87 c 0,-1.43 0.38,-2.63 1.14,-3.55 0.6,-0.73 1.74,-1.6 3.82,-1.6 2.08,0 3.17,0.87 3.76,1.59 0.75,0.92 1.14,2.12 1.14,3.55 v 13.87 c 0,1.44 -0.39,2.64 -1.15,3.55 -0.59,0.71 -1.73,1.57 -3.78,1.57 z"
           id="path82" />
      </g>
      <g
         id="g83">
        <path
           class="st12"
           d="m 30.59,176.06 h 4.25 v 1.32 h -2.82 v 8.03 h 2.58 v 1.32 h -2.58 v 8.52 h -1.43 v -19.18 z"
           id="path83" />
        <polygon
           class="st11"
           points="36.88,189.02 34.31,189.02 34.31,197.54 28.29,197.54 28.29,173.76 37.13,173.76 37.13,179.67 34.31,179.67 34.31,183.11 36.88,183.11 "
           id="polygon83" />
      </g>
      <g
         id="g84">
        <path
           class="st12"
           d="m 41.88,177.35 h -2 v -1.29 h 5.4 v 1.29 h -2 v 17.9 h -1.4 z"
           id="path84" />
        <polygon
           class="st11"
           points="45.57,197.54 39.58,197.54 39.58,179.64 37.58,179.64 37.58,173.76 47.57,173.76 47.57,179.64 45.57,179.64 "
           id="polygon84" />
      </g>
      <g
         id="g85">
        <path
           class="st12"
           d="m 50.65,176.06 h 1.51 l 0.71,17.95 h 0.99 l -0.3,1.23 h -1.67 l -1.23,-19.18 z m 3.7,0 h 1.75 l 1.23,19.18 H 56.32 L 55.2,177.62 h 0.05 l -1.12,17.62 h -1.01 z m 2.27,17.95 h 0.99 l 0.71,-17.95 h 1.51 l -1.23,19.18 h -1.7 l -0.27,-1.23 z"
           id="path85" />
        <polygon
           class="st11"
           points="60.75,197.54 49.73,197.54 48.2,173.76 62.28,173.76 "
           id="polygon85" />
      </g>
      <g
         id="g86">
        <path
           class="st12"
           d="m 66.51,195.24 h -1.42 l 1.26,-17.9 1.18,0.03 -1.01,17.87 z m -0.79,-19.18 h 3.4 l 1.32,19.18 h -1.4 L 68.05,177.4 h -2.33 z m 0.74,10.58 h 2.66 v 1.21 h -2.66 z"
           id="path86" />
        <polygon
           class="st11"
           points="63.88,179.7 63.42,179.7 63.42,173.76 71.26,173.76 72.89,197.54 62.62,197.54 "
           id="polygon86" />
      </g>
      <g
         id="g88">
        <path
           class="st12"
           d="m 76.19,176.06 h 2.63 c 0.95,0 1.63,0.23 2.04,0.7 0.41,0.47 0.62,1.12 0.62,1.96 v 5.86 c 0,0.53 -0.11,0.98 -0.34,1.36 -0.23,0.37 -0.61,0.58 -1.14,0.62 v 0.03 c 0.57,0.02 0.96,0.19 1.18,0.52 0.22,0.33 0.33,0.75 0.33,1.26 v 6.88 h -1.45 v -6.96 c 0,-0.38 -0.08,-0.68 -0.25,-0.88 -0.17,-0.2 -0.47,-0.3 -0.9,-0.3 h -1.29 v 8.14 h -1.43 v -19.18 z m 3.6,9.63 c 0.17,-0.19 0.26,-0.5 0.26,-0.92 v -5.97 c 0,-0.51 -0.09,-0.88 -0.26,-1.1 -0.17,-0.22 -0.5,-0.33 -0.97,-0.33 h -1.21 v 8.61 h 1.29 c 0.42,0 0.72,-0.1 0.89,-0.29 z"
           id="path87" />
        <path
           class="st11"
           d="m 83.8,197.54 h -9.91 v -23.78 h 4.93 c 1.63,0 2.9,0.5 3.76,1.48 0.79,0.9 1.19,2.07 1.19,3.48 v 5.86 c 0,0.68 -0.11,1.31 -0.34,1.88 0.25,0.57 0.37,1.2 0.37,1.9 z"
           id="path88" />
      </g>
      <g
         id="g89">
        <path
           class="st12"
           d="m 87.73,176.06 h 4.25 v 1.32 h -2.82 v 16.55 h 2.82 v 1.32 h -4.25 v -19.18 z m 0.71,8.44 h 3.15 v 1.34 h -3.15 z"
           id="path89" />
        <polygon
           class="st11"
           points="93.89,188.14 91.45,188.14 91.45,191.63 94.27,191.63 94.27,197.54 85.43,197.54 85.43,173.76 94.27,173.76 94.27,179.67 91.45,179.67 91.45,182.2 93.89,182.2 "
           id="polygon89" />
      </g>
      <g
         id="g91">
        <path
           class="st12"
           d="m 104.9,194.75 c -0.41,-0.47 -0.62,-1.19 -0.62,-2.14 v -4.36 h 1.43 v 4.38 c 0,0.57 0.09,0.97 0.27,1.22 0.18,0.25 0.49,0.37 0.93,0.37 0.44,0 0.75,-0.12 0.95,-0.37 0.19,-0.25 0.29,-0.65 0.29,-1.22 v -4.17 c 0,-0.49 -0.1,-0.86 -0.29,-1.11 -0.19,-0.25 -0.56,-0.51 -1.11,-0.78 l -0.66,-0.27 c -0.64,-0.29 -1.1,-0.63 -1.37,-1.03 -0.27,-0.39 -0.41,-0.92 -0.41,-1.58 v -4.93 c 0,-0.95 0.2,-1.67 0.6,-2.15 0.4,-0.48 1.07,-0.73 2,-0.73 0.93,0 1.61,0.25 2.03,0.74 0.42,0.49 0.63,1.21 0.63,2.14 v 5.02 h -1.43 v -5.04 c 0,-0.58 -0.1,-1 -0.29,-1.23 -0.19,-0.24 -0.51,-0.36 -0.95,-0.36 -0.44,0 -0.73,0.12 -0.93,0.36 -0.2,0.24 -0.3,0.65 -0.3,1.23 v 4.71 c 0,0.51 0.1,0.88 0.29,1.11 0.19,0.23 0.57,0.48 1.14,0.75 l 0.66,0.3 c 0.66,0.27 1.12,0.61 1.4,1 0.27,0.39 0.41,0.92 0.41,1.58 v 4.41 c 0,0.93 -0.21,1.64 -0.62,2.12 -0.41,0.48 -1.09,0.73 -2.04,0.73 -0.95,0 -1.6,-0.24 -2.01,-0.71 z"
           id="path90" />
        <path
           class="st11"
           d="m 106.91,197.76 c -2.02,0 -3.16,-0.82 -3.75,-1.51 -0.78,-0.9 -1.18,-2.13 -1.18,-3.64 v -6.65 h 0.48 c -0.3,-0.65 -0.46,-1.41 -0.46,-2.25 v -4.93 c 0,-1.5 0.38,-2.71 1.13,-3.62 0.59,-0.71 1.72,-1.56 3.77,-1.56 2.05,0 3.18,0.84 3.78,1.55 0.78,0.92 1.18,2.14 1.18,3.63 v 7.31 h -0.4 c 0.26,0.62 0.4,1.33 0.4,2.12 v 4.41 c 0,1.49 -0.39,2.7 -1.16,3.61 -0.6,0.7 -1.74,1.54 -3.79,1.54 z"
           id="path91" />
      </g>
      <g
         id="g93">
        <path
           class="st12"
           d="m 116.32,194.67 c -0.41,-0.49 -0.62,-1.19 -0.62,-2.08 v -13.87 c 0,-0.9 0.21,-1.59 0.62,-2.1 0.41,-0.5 1.09,-0.75 2.04,-0.75 0.95,0 1.58,0.25 1.99,0.75 0.41,0.5 0.62,1.2 0.62,2.1 v 13.87 c 0,0.9 -0.21,1.59 -0.62,2.08 -0.41,0.49 -1.08,0.74 -2.01,0.74 -0.93,0 -1.6,-0.25 -2.01,-0.74 z m 2.98,-0.92 c 0.16,-0.23 0.25,-0.6 0.25,-1.11 v -13.98 c 0,-0.53 -0.08,-0.91 -0.25,-1.14 -0.16,-0.23 -0.47,-0.34 -0.93,-0.34 -0.46,0 -0.8,0.11 -0.97,0.34 -0.17,0.23 -0.26,0.61 -0.26,1.14 v 13.98 c 0,0.51 0.09,0.88 0.26,1.11 0.17,0.23 0.5,0.34 0.97,0.34 0.47,0 0.77,-0.11 0.93,-0.34 z"
           id="path92" />
        <path
           class="st11"
           d="m 118.34,197.7 c -2.04,0 -3.18,-0.85 -3.78,-1.57 -0.76,-0.91 -1.15,-2.11 -1.15,-3.55 v -13.87 c 0,-1.44 0.38,-2.63 1.14,-3.55 0.6,-0.73 1.74,-1.6 3.82,-1.6 2.08,0 3.17,0.87 3.76,1.59 0.75,0.92 1.14,2.12 1.14,3.55 v 13.87 c 0,1.44 -0.39,2.64 -1.15,3.55 -0.59,0.71 -1.73,1.57 -3.78,1.57 z"
           id="path93" />
      </g>
      <g
         id="g94">
        <path
           class="st12"
           d="m 127.22,176.06 h 1.43 v 17.87 h 2.74 v 1.32 h -4.17 v -19.18 z"
           id="path94" />
        <polygon
           class="st11"
           points="124.92,173.76 130.94,173.76 130.94,191.63 133.68,191.63 133.68,197.54 124.92,197.54 "
           id="polygon94" />
      </g>
      <g
         id="g96">
        <path
           class="st12"
           d="m 137.26,194.67 c -0.41,-0.49 -0.62,-1.19 -0.62,-2.08 v -16.53 h 1.42 v 16.58 c 0,0.51 0.09,0.88 0.26,1.11 0.17,0.23 0.5,0.34 0.97,0.34 0.47,0 0.79,-0.11 0.96,-0.34 0.16,-0.23 0.25,-0.6 0.25,-1.11 v -16.58 h 1.42 v 16.53 c 0,0.9 -0.2,1.59 -0.6,2.08 -0.4,0.49 -1.08,0.74 -2.03,0.74 -0.95,0 -1.63,-0.25 -2.04,-0.74 z"
           id="path95" />
        <path
           class="st11"
           d="m 139.3,197.7 c -2.07,0 -3.21,-0.85 -3.81,-1.57 -0.76,-0.91 -1.15,-2.11 -1.15,-3.55 v -18.82 h 9.88 v 18.82 c 0,1.43 -0.38,2.62 -1.12,3.53 -0.59,0.72 -1.73,1.59 -3.81,1.59 z"
           id="path96" />
      </g>
      <g
         id="g97">
        <path
           class="st12"
           d="m 149.47,177.35 h -2 v -1.29 h 5.4 v 1.29 h -2 v 17.9 h -1.4 z"
           id="path97" />
        <polygon
           class="st11"
           points="153.16,197.54 147.17,197.54 147.17,179.64 145.17,179.64 145.17,173.76 155.16,173.76 155.16,179.64 153.16,179.64 "
           id="polygon97" />
      </g>
      <g
         id="g98">
        <path
           class="st12"
           d="m 158.38,176.06 h 1.43 v 19.18 h -1.43 z"
           id="path98" />
        <rect
           class="st11"
           x="156.08"
           y="173.75999"
           width="6.02"
           height="23.780001"
           id="rect98" />
      </g>
      <g
         id="g100">
        <path
           class="st12"
           d="m 166.64,194.67 c -0.41,-0.49 -0.62,-1.19 -0.62,-2.08 v -13.87 c 0,-0.9 0.21,-1.59 0.62,-2.1 0.41,-0.5 1.09,-0.75 2.04,-0.75 0.95,0 1.58,0.25 1.99,0.75 0.41,0.5 0.62,1.2 0.62,2.1 v 13.87 c 0,0.9 -0.21,1.59 -0.62,2.08 -0.41,0.49 -1.08,0.74 -2.01,0.74 -0.93,0 -1.6,-0.25 -2.01,-0.74 z m 2.97,-0.92 c 0.16,-0.23 0.25,-0.6 0.25,-1.11 v -13.98 c 0,-0.53 -0.08,-0.91 -0.25,-1.14 -0.16,-0.23 -0.47,-0.34 -0.93,-0.34 -0.46,0 -0.8,0.11 -0.97,0.34 -0.17,0.23 -0.26,0.61 -0.26,1.14 v 13.98 c 0,0.51 0.09,0.88 0.26,1.11 0.17,0.23 0.5,0.34 0.97,0.34 0.47,0 0.77,-0.11 0.93,-0.34 z"
           id="path99" />
        <path
           class="st11"
           d="m 168.65,197.7 c -2.04,0 -3.18,-0.85 -3.78,-1.57 v 0 c 0,0 0,0 0,0 v 0 c -0.76,-0.91 -1.15,-2.11 -1.15,-3.55 v -13.87 c 0,-1.43 0.38,-2.63 1.13,-3.55 0.6,-0.73 1.74,-1.6 3.82,-1.6 2.08,0 3.17,0.87 3.76,1.59 0.75,0.92 1.14,2.12 1.14,3.55 v 13.87 c 0,1.44 -0.39,2.64 -1.15,3.55 -0.59,0.71 -1.73,1.57 -3.78,1.57 z"
           id="path100" />
      </g>
      <g
         id="g101">
        <path
           class="st12"
           d="m 178.77,177.51 h -1.23 v -1.45 h 2.22 l 2.41,17.73 h 1.23 v 1.45 h -2.25 z m -1.24,-0.11 h 0.96 l 0.41,17.84 h -1.37 z m 4.5,-1.34 h 1.37 v 17.87 h -0.96 z"
           id="path101" />
        <rect
           class="st11"
           x="175.23"
           y="173.75999"
           width="10.46"
           height="23.780001"
           id="rect101" />
      </g>
      <g
         id="g103">
        <path
           class="st12"
           d="m 190.15,194.75 c -0.41,-0.47 -0.62,-1.19 -0.62,-2.14 v -4.36 h 1.43 v 4.38 c 0,0.57 0.09,0.97 0.27,1.22 0.18,0.25 0.49,0.37 0.93,0.37 0.44,0 0.75,-0.12 0.95,-0.37 0.19,-0.25 0.29,-0.65 0.29,-1.22 v -4.17 c 0,-0.49 -0.1,-0.86 -0.29,-1.11 -0.19,-0.25 -0.56,-0.51 -1.11,-0.78 l -0.66,-0.27 c -0.64,-0.29 -1.1,-0.63 -1.37,-1.03 -0.27,-0.39 -0.41,-0.92 -0.41,-1.58 v -4.93 c 0,-0.95 0.2,-1.67 0.6,-2.15 0.4,-0.48 1.07,-0.73 2,-0.73 0.93,0 1.61,0.25 2.03,0.74 0.42,0.49 0.63,1.21 0.63,2.14 v 5.02 h -1.43 v -5.04 c 0,-0.58 -0.1,-1 -0.29,-1.23 -0.19,-0.24 -0.51,-0.36 -0.95,-0.36 -0.44,0 -0.73,0.12 -0.93,0.36 -0.2,0.24 -0.3,0.65 -0.3,1.23 v 4.71 c 0,0.51 0.1,0.88 0.29,1.11 0.19,0.23 0.57,0.48 1.14,0.75 l 0.66,0.3 c 0.66,0.27 1.12,0.61 1.4,1 0.27,0.39 0.41,0.92 0.41,1.58 v 4.41 c 0,0.93 -0.21,1.64 -0.62,2.12 -0.41,0.48 -1.09,0.73 -2.04,0.73 -0.95,0 -1.6,-0.24 -2.01,-0.71 z"
           id="path102" />
        <path
           class="st11"
           d="m 192.17,197.76 c -2.02,0 -3.16,-0.82 -3.75,-1.51 -0.78,-0.9 -1.18,-2.13 -1.18,-3.64 v -6.65 h 0.48 c -0.3,-0.65 -0.46,-1.41 -0.46,-2.25 v -4.93 c 0,-1.5 0.38,-2.71 1.13,-3.62 0.59,-0.71 1.72,-1.56 3.77,-1.56 2.05,0 3.18,0.84 3.78,1.55 0.78,0.92 1.18,2.14 1.18,3.63 v 7.31 h -0.4 c 0.26,0.62 0.4,1.33 0.4,2.12 v 4.41 c 0,1.49 -0.39,2.7 -1.16,3.61 -0.6,0.7 -1.74,1.54 -3.79,1.54 z"
           id="path103" />
      </g>
    </g>
    <g
       id="g105">
      <polygon
         class="st11"
         points="189.54,195.24 12.94,195.24 12.94,125.63 189.54,127.13 "
         id="polygon104" />
      <path
         class="st11"
         d="M 189.54,197.54 H 12.94 c -1.27,0 -2.3,-1.03 -2.3,-2.3 v -69.61 c 0,-0.61 0.24,-1.2 0.68,-1.63 0.44,-0.43 1.02,-0.65 1.64,-0.67 l 176.6,1.5 c 1.26,0.01 2.28,1.04 2.28,2.3 v 68.11 c 0,1.27 -1.03,2.3 -2.3,2.3 z M 15.23,192.95 h 172 v -63.54 l -172,-1.46 z"
         id="path104" />
    </g>
    <g
       id="g127">
      <path
         class="st6"
         d="m 13.42,166.84 c -2.05,-1.18 -3.52,-2.83 -4.41,-4.95 -0.9,-2.12 -1.34,-4.67 -1.34,-7.64 v -26.47 c 0,-2.97 0.45,-5.5 1.34,-7.6 0.89,-2.1 2.37,-3.75 4.41,-4.95 2.05,-1.2 4.76,-1.8 8.13,-1.8 3.37,0 6.16,0.6 8.21,1.8 2.05,1.2 3.52,2.85 4.41,4.95 0.89,2.1 1.34,4.63 1.34,7.6 v 10.74 H 25.23 v -11.36 c 0,-1.59 -0.26,-2.72 -0.77,-3.41 -0.51,-0.69 -1.46,-1.04 -2.84,-1.04 -1.38,0 -2.34,0.34 -2.88,1.04 -0.54,0.69 -0.81,1.83 -0.81,3.41 v 27.78 c 0,1.53 0.26,2.65 0.77,3.34 0.51,0.69 1.46,1.04 2.84,1.04 1.38,0 2.34,-0.33 2.88,-1 0.54,-0.66 0.81,-1.79 0.81,-3.38 v -11.43 h 10.28 v 10.74 c 0,2.97 -0.44,5.51 -1.3,7.64 -0.87,2.12 -2.34,3.77 -4.41,4.95 -2.07,1.18 -4.82,1.76 -8.25,1.76 -3.43,0 -6.09,-0.59 -8.13,-1.76 z"
         id="path105" />
      <path
         class="st6"
         d="m 46.76,164.81 c -2.12,-2.53 -3.18,-6.05 -3.18,-10.55 v -26.47 c 0,-4.55 1.06,-8.08 3.18,-10.59 2.12,-2.51 5.69,-3.76 10.7,-3.76 5.01,0 8.58,1.25 10.7,3.76 2.12,2.51 3.18,6.04 3.18,10.59 v 26.47 c 0,4.5 -1.06,8.02 -3.18,10.55 -2.12,2.53 -5.69,3.8 -10.7,3.8 -5.01,0 -8.58,-1.27 -10.7,-3.8 z m 13.5,-6.49 c 0.54,-0.66 0.81,-1.82 0.81,-3.45 v -27.7 c 0,-1.59 -0.26,-2.72 -0.77,-3.41 -0.51,-0.69 -1.46,-1.04 -2.84,-1.04 -1.38,0 -2.33,0.34 -2.84,1.04 -0.51,0.69 -0.77,1.83 -0.77,3.41 v 27.78 c 0,1.53 0.26,2.65 0.77,3.34 0.51,0.69 1.46,1.04 2.84,1.04 1.38,0 2.26,-0.33 2.8,-1 z"
         id="path106" />
      <path
         class="st6"
         d="m 79.64,114.12 h 13.58 c 4.96,0 8.52,1.07 10.67,3.22 2.15,2.15 3.22,5.04 3.22,8.67 v 5.76 c 0,2.56 -0.64,4.67 -1.92,6.33 -1.28,1.66 -3.27,2.49 -5.99,2.49 h -0.61 v 0.15 h 0.54 c 3.07,0 5.22,0.78 6.45,2.34 1.23,1.56 1.84,3.44 1.84,5.64 v 6.75 c 0,3.63 -1.1,6.6 -3.3,8.9 -2.2,2.3 -5.73,3.45 -10.59,3.45 H 79.64 V 114.1 Z m 16.65,43.4 c 0.56,-0.69 0.84,-1.83 0.84,-3.42 v -5.91 c 0,-1.23 -0.27,-2.16 -0.81,-2.8 -0.54,-0.64 -1.55,-0.96 -3.03,-0.96 h -5.22 v -7.67 h 4.91 c 1.53,0 2.57,-0.28 3.11,-0.84 0.54,-0.56 0.81,-1.51 0.81,-2.84 v -5.75 c 0,-1.33 -0.28,-2.31 -0.84,-2.95 -0.56,-0.64 -1.48,-0.96 -2.76,-0.96 h -3.45 v 35.15 h 3.68 c 1.28,0 2.2,-0.35 2.76,-1.04 z"
         id="path107" />
      <path
         class="st6"
         d="M 123.76,167.84 H 113.4 l 5.22,-44.58 8.29,0.15 z m -7.67,-53.72 h 20.1 l 6.29,53.72 h -10.59 l -3.07,-44.28 h -12.74 v -9.44 z m 6.9,30.77 h 9.98 v 8.75 h -9.98 z"
         id="path108" />
      <path
         class="st6"
         d="m 149.39,114.12 h 10.21 v 44.43 h 8.82 v 9.28 h -19.03 v -53.72 z"
         id="path109" />
      <path
         class="st6"
         d="m 177.55,123.41 h -6.68 v -9.28 h 23.79 v 9.28 h -6.83 v 44.43 h -10.28 z"
         id="path110" />
      <path
         class="st6"
         d="m 8.26,194.75 c -0.41,-0.47 -0.62,-1.19 -0.62,-2.14 v -4.36 h 1.42 v 4.38 c 0,0.57 0.09,0.97 0.27,1.22 0.18,0.25 0.49,0.37 0.93,0.37 0.44,0 0.75,-0.12 0.95,-0.37 0.2,-0.25 0.29,-0.65 0.29,-1.22 v -4.17 c 0,-0.49 -0.1,-0.86 -0.29,-1.11 -0.19,-0.25 -0.56,-0.51 -1.11,-0.78 L 9.44,186.3 C 8.8,186.01 8.34,185.67 8.07,185.27 7.8,184.88 7.66,184.35 7.66,183.69 v -4.93 c 0,-0.95 0.2,-1.67 0.6,-2.15 0.4,-0.48 1.07,-0.73 2,-0.73 0.93,0 1.61,0.25 2.03,0.74 0.42,0.49 0.63,1.21 0.63,2.14 v 5.02 h -1.43 v -5.04 c 0,-0.58 -0.1,-1 -0.29,-1.23 -0.19,-0.24 -0.51,-0.36 -0.95,-0.36 -0.44,0 -0.73,0.12 -0.93,0.36 -0.2,0.24 -0.3,0.65 -0.3,1.23 v 4.71 c 0,0.51 0.1,0.88 0.29,1.11 0.19,0.23 0.57,0.48 1.14,0.75 l 0.66,0.3 c 0.66,0.27 1.12,0.61 1.4,1 0.27,0.39 0.41,0.92 0.41,1.58 v 4.41 c 0,0.93 -0.21,1.64 -0.62,2.12 -0.41,0.48 -1.09,0.73 -2.04,0.73 -0.95,0 -1.6,-0.24 -2.01,-0.71 z"
         id="path111" />
      <path
         class="st6"
         d="m 19.69,194.67 c -0.41,-0.49 -0.62,-1.19 -0.62,-2.08 v -13.87 c 0,-0.89 0.21,-1.59 0.62,-2.1 0.41,-0.5 1.09,-0.75 2.04,-0.75 0.95,0 1.58,0.25 1.99,0.75 0.41,0.5 0.62,1.2 0.62,2.1 v 13.87 c 0,0.9 -0.21,1.59 -0.62,2.08 -0.41,0.49 -1.08,0.74 -2.01,0.74 -0.93,0 -1.6,-0.25 -2.01,-0.74 z m 2.98,-0.92 c 0.16,-0.23 0.25,-0.6 0.25,-1.11 v -13.98 c 0,-0.53 -0.08,-0.91 -0.25,-1.14 -0.17,-0.23 -0.48,-0.34 -0.93,-0.34 -0.45,0 -0.8,0.11 -0.97,0.34 -0.17,0.23 -0.26,0.61 -0.26,1.14 v 13.98 c 0,0.51 0.09,0.88 0.26,1.11 0.17,0.23 0.5,0.34 0.97,0.34 0.47,0 0.77,-0.11 0.93,-0.34 z"
         id="path112" />
      <path
         class="st6"
         d="m 30.59,176.06 h 4.25 v 1.32 h -2.82 v 8.03 h 2.58 v 1.32 h -2.58 v 8.52 H 30.6 v -19.18 z"
         id="path113" />
      <path
         class="st6"
         d="m 41.88,177.35 h -2 v -1.29 h 5.4 v 1.29 h -2 v 17.9 h -1.4 z"
         id="path114" />
      <path
         class="st6"
         d="m 50.65,176.06 h 1.51 l 0.71,17.95 h 0.99 l -0.3,1.23 h -1.67 l -1.23,-19.18 z m 3.7,0 h 1.75 l 1.23,19.18 H 56.32 L 55.2,177.62 h 0.05 l -1.12,17.62 h -1.01 z m 2.27,17.95 h 0.99 l 0.71,-17.95 h 1.51 l -1.23,19.18 h -1.7 l -0.27,-1.23 z"
         id="path115" />
      <path
         class="st6"
         d="m 66.51,195.24 h -1.43 l 1.26,-17.9 1.18,0.03 z m -0.79,-19.18 h 3.4 l 1.32,19.18 h -1.4 L 68.05,177.4 h -2.33 z m 0.74,10.58 h 2.66 v 1.21 h -2.66 z"
         id="path116" />
      <path
         class="st6"
         d="m 76.19,176.06 h 2.63 c 0.95,0 1.63,0.23 2.04,0.7 0.41,0.47 0.62,1.12 0.62,1.96 v 5.87 c 0,0.53 -0.11,0.98 -0.34,1.36 -0.23,0.37 -0.61,0.58 -1.14,0.62 v 0.03 c 0.57,0.02 0.96,0.19 1.18,0.52 0.22,0.33 0.33,0.75 0.33,1.26 v 6.88 h -1.45 v -6.96 c 0,-0.38 -0.08,-0.68 -0.25,-0.88 -0.16,-0.2 -0.47,-0.3 -0.9,-0.3 h -1.29 v 8.14 H 76.2 v -19.18 z m 3.6,9.63 c 0.17,-0.19 0.26,-0.5 0.26,-0.92 v -5.97 c 0,-0.51 -0.09,-0.88 -0.26,-1.1 -0.17,-0.22 -0.5,-0.33 -0.97,-0.33 h -1.21 v 8.61 h 1.29 c 0.42,0 0.72,-0.1 0.89,-0.29 z"
         id="path117" />
      <path
         class="st6"
         d="m 87.73,176.06 h 4.25 v 1.32 h -2.82 v 16.55 h 2.82 v 1.32 h -4.25 v -19.18 z m 0.71,8.44 h 3.15 v 1.34 h -3.15 z"
         id="path118" />
      <path
         class="st6"
         d="m 104.89,194.75 c -0.41,-0.47 -0.62,-1.19 -0.62,-2.14 v -4.36 h 1.42 v 4.38 c 0,0.57 0.09,0.97 0.27,1.22 0.18,0.25 0.49,0.37 0.93,0.37 0.44,0 0.75,-0.12 0.95,-0.37 0.2,-0.25 0.29,-0.65 0.29,-1.22 v -4.17 c 0,-0.49 -0.1,-0.86 -0.29,-1.11 -0.19,-0.25 -0.56,-0.51 -1.11,-0.78 l -0.66,-0.27 c -0.64,-0.29 -1.1,-0.63 -1.37,-1.03 -0.27,-0.39 -0.41,-0.92 -0.41,-1.58 v -4.93 c 0,-0.95 0.2,-1.67 0.6,-2.15 0.4,-0.48 1.07,-0.73 2,-0.73 0.93,0 1.61,0.25 2.03,0.74 0.42,0.49 0.63,1.21 0.63,2.14 v 5.02 h -1.43 v -5.04 c 0,-0.58 -0.1,-1 -0.29,-1.23 -0.19,-0.24 -0.51,-0.36 -0.95,-0.36 -0.44,0 -0.73,0.12 -0.93,0.36 -0.2,0.24 -0.3,0.65 -0.3,1.23 v 4.71 c 0,0.51 0.1,0.88 0.29,1.11 0.19,0.23 0.57,0.48 1.14,0.75 l 0.66,0.3 c 0.66,0.27 1.12,0.61 1.4,1 0.27,0.39 0.41,0.92 0.41,1.58 v 4.41 c 0,0.93 -0.21,1.64 -0.62,2.12 -0.41,0.48 -1.09,0.73 -2.04,0.73 -0.95,0 -1.6,-0.24 -2.01,-0.71 z"
         id="path119" />
      <path
         class="st6"
         d="m 116.32,194.67 c -0.41,-0.49 -0.62,-1.19 -0.62,-2.08 v -13.87 c 0,-0.89 0.21,-1.59 0.62,-2.1 0.41,-0.5 1.09,-0.75 2.04,-0.75 0.95,0 1.58,0.25 1.99,0.75 0.41,0.5 0.62,1.2 0.62,2.1 v 13.87 c 0,0.9 -0.21,1.59 -0.62,2.08 -0.41,0.49 -1.08,0.74 -2.01,0.74 -0.93,0 -1.6,-0.25 -2.01,-0.74 z m 2.98,-0.92 c 0.16,-0.23 0.25,-0.6 0.25,-1.11 v -13.98 c 0,-0.53 -0.08,-0.91 -0.25,-1.14 -0.17,-0.23 -0.48,-0.34 -0.93,-0.34 -0.45,0 -0.8,0.11 -0.97,0.34 -0.17,0.23 -0.26,0.61 -0.26,1.14 v 13.98 c 0,0.51 0.09,0.88 0.26,1.11 0.17,0.23 0.5,0.34 0.97,0.34 0.47,0 0.77,-0.11 0.93,-0.34 z"
         id="path120" />
      <path
         class="st6"
         d="m 127.22,176.06 h 1.42 v 17.87 h 2.74 v 1.32 h -4.17 v -19.18 z"
         id="path121" />
      <path
         class="st6"
         d="m 137.26,194.67 c -0.41,-0.49 -0.62,-1.19 -0.62,-2.08 v -16.53 h 1.42 v 16.58 c 0,0.51 0.09,0.88 0.26,1.11 0.17,0.23 0.5,0.34 0.97,0.34 0.47,0 0.8,-0.11 0.96,-0.34 0.16,-0.23 0.25,-0.6 0.25,-1.11 v -16.58 h 1.42 v 16.53 c 0,0.9 -0.2,1.59 -0.6,2.08 -0.4,0.49 -1.08,0.74 -2.03,0.74 -0.95,0 -1.63,-0.25 -2.04,-0.74 z"
         id="path122" />
      <path
         class="st6"
         d="m 149.47,177.35 h -2 v -1.29 h 5.4 v 1.29 h -2 v 17.9 h -1.4 z"
         id="path123" />
      <path
         class="st6"
         d="m 158.38,176.06 h 1.42 v 19.18 h -1.42 z"
         id="path124" />
      <path
         class="st6"
         d="m 166.64,194.67 c -0.41,-0.49 -0.62,-1.19 -0.62,-2.08 v -13.87 c 0,-0.89 0.21,-1.59 0.62,-2.1 0.41,-0.51 1.09,-0.75 2.04,-0.75 0.95,0 1.58,0.25 1.99,0.75 0.41,0.5 0.62,1.2 0.62,2.1 v 13.87 c 0,0.9 -0.21,1.59 -0.62,2.08 -0.41,0.49 -1.08,0.74 -2.01,0.74 -0.93,0 -1.6,-0.25 -2.01,-0.74 z m 2.97,-0.92 c 0.16,-0.23 0.25,-0.6 0.25,-1.11 v -13.98 c 0,-0.53 -0.08,-0.91 -0.25,-1.14 -0.17,-0.23 -0.48,-0.34 -0.93,-0.34 -0.45,0 -0.8,0.11 -0.97,0.34 -0.17,0.23 -0.26,0.61 -0.26,1.14 v 13.98 c 0,0.51 0.09,0.88 0.26,1.11 0.17,0.23 0.5,0.34 0.97,0.34 0.47,0 0.77,-0.11 0.93,-0.34 z"
         id="path125" />
      <path
         class="st6"
         d="m 178.77,177.51 h -1.23 v -1.45 h 2.22 l 2.41,17.73 h 1.23 v 1.45 h -2.25 z m -1.24,-0.11 h 0.96 l 0.41,17.84 h -1.37 z m 4.5,-1.34 h 1.37 v 17.87 h -0.96 z"
         id="path126" />
      <path
         class="st6"
         d="m 190.15,194.75 c -0.41,-0.47 -0.62,-1.19 -0.62,-2.14 v -4.36 h 1.42 v 4.38 c 0,0.57 0.09,0.97 0.27,1.22 0.18,0.25 0.49,0.37 0.93,0.37 0.44,0 0.75,-0.12 0.95,-0.37 0.2,-0.25 0.29,-0.65 0.29,-1.22 v -4.17 c 0,-0.49 -0.1,-0.86 -0.29,-1.11 -0.19,-0.25 -0.56,-0.51 -1.11,-0.78 l -0.66,-0.27 c -0.64,-0.29 -1.1,-0.63 -1.37,-1.03 -0.27,-0.39 -0.41,-0.92 -0.41,-1.58 v -4.93 c 0,-0.95 0.2,-1.67 0.6,-2.15 0.4,-0.48 1.07,-0.73 2,-0.73 0.93,0 1.61,0.25 2.03,0.74 0.42,0.49 0.63,1.21 0.63,2.14 v 5.02 h -1.43 v -5.04 c 0,-0.58 -0.1,-1 -0.29,-1.23 -0.19,-0.24 -0.51,-0.36 -0.95,-0.36 -0.44,0 -0.73,0.12 -0.93,0.36 -0.2,0.24 -0.3,0.65 -0.3,1.23 v 4.71 c 0,0.51 0.1,0.88 0.29,1.11 0.19,0.23 0.57,0.48 1.14,0.75 l 0.66,0.3 c 0.66,0.27 1.12,0.61 1.4,1 0.27,0.39 0.41,0.92 0.41,1.58 v 4.41 c 0,0.93 -0.21,1.64 -0.62,2.12 -0.41,0.48 -1.09,0.73 -2.04,0.73 -0.95,0 -1.6,-0.24 -2.01,-0.71 z"
         id="path127" />
    </g>
  </g>
</svg>
