<?xml version="1.0" encoding="UTF-8"?>
<svg id="Layer_1" xmlns="http://www.w3.org/2000/svg" version="1.1" viewBox="0 0 200 313.35">
  <!-- Generator: Adobe Illustrator 29.6.1, SVG Export Plug-In . SVG Version: 2.1.1 Build 9)  -->
  <defs>
    <style>
      .st0, .st1, .st2, .st3 {
        fill: #1d184c;
      }

      .st0, .st4 {
        opacity: .75;
      }

      .st5 {
        opacity: .5;
      }

      .st5, .st6, .st7, .st4, .st8, .st9, .st10, .st11 {
        fill: #164ca0;
      }

      .st12 {
        fill: #fff;
      }

      .st7 {
        fill-opacity: .75;
      }

      .st13 {
        fill: #f4f5f5;
      }

      .st2 {
        opacity: .25;
      }

      .st8 {
        fill-opacity: .5;
      }

      .st9 {
        opacity: .1;
      }

      .st10 {
        fill-opacity: .1;
      }

      .st11 {
        fill-opacity: .25;
      }

      .st3 {
        opacity: .9;
      }
    </style>
  </defs>
  <rect class="st12" x="59.83" y="78.17" width="80.26" height="158.9"/>
  <g>
    <g>
      <polygon class="st12" points="142.82 222.6 100 247.33 57.18 222.6 57.18 173.16 14.36 148.43 14.36 197.88 14.36 247.33 57.18 272.05 100 296.77 142.82 272.05 185.64 247.33 185.64 197.88 185.64 197.88 142.82 173.16 142.82 222.6"/>
      <path class="st12" d="M100,313.35L0,255.62V123.57l71.53,41.3v49.45l28.47,16.43,28.47-16.43v-66.02l71.53,41.3v66.02l-100,57.73ZM28.71,239.04l71.29,41.16,71.29-41.16v-32.87l-14.11-8.15v32.87l-57.18,33.01-57.18-33.01v-49.45l-14.11-8.15v65.74Z"/>
    </g>
    <polygon class="st13" points="174.94 241.15 100 284.41 25.06 241.15 25.06 166.98 46.47 179.34 46.47 228.79 100 259.69 153.53 228.79 153.53 179.34 174.94 191.73 174.94 241.15"/>
    <g>
      <polygon class="st6" points="57.18 272.05 100 296.77 100 247.33 57.18 272.05"/>
      <polygon class="st6" points="142.82 272.05 100 247.33 100 296.77 142.82 272.05"/>
      <polygon class="st7" points="100 247.33 142.82 272.05 142.82 222.6 100 247.33"/>
      <polygon class="st8" points="185.64 247.33 142.82 222.6 142.82 272.05 185.64 247.33"/>
      <polygon class="st5" points="14.36 247.33 57.18 272.05 57.18 222.6 14.36 247.33"/>
      <g>
        <polygon class="st6" points="100 247.33 57.18 222.6 57.18 272.05 100 247.33"/>
        <polygon class="st2" points="100 247.33 57.18 222.6 57.18 272.05 100 247.33"/>
      </g>
      <g>
        <polygon class="st4" points="14.36 197.88 14.36 247.33 57.18 222.6 14.36 197.88"/>
        <polygon class="st0" points="14.36 197.88 14.36 247.33 57.18 222.6 14.36 197.88"/>
      </g>
      <polygon class="st1" points="14.36 148.43 14.36 197.88 57.18 173.16 14.36 148.43"/>
      <g>
        <polygon class="st4" points="57.18 222.6 57.18 173.16 14.36 197.88 57.18 222.6"/>
        <polygon class="st3" points="57.18 222.6 57.18 173.16 14.36 197.88 57.18 222.6"/>
      </g>
      <polygon class="st12" points="185.64 197.88 185.64 197.88 142.82 173.16 185.64 197.88"/>
      <polygon class="st11" points="185.64 247.33 185.64 197.88 142.82 222.6 185.64 247.33"/>
      <polygon class="st10" points="142.82 173.16 142.82 222.6 185.64 197.88 142.82 173.16"/>
    </g>
    <polygon class="st13" points="174.94 241.15 100 284.41 25.06 241.15 25.06 166.98 46.47 179.34 46.47 228.79 100 259.69 153.53 228.79 153.53 179.34 174.94 191.73 174.94 241.15"/>
    <g>
      <polygon class="st6" points="57.18 272.05 100 296.77 100 247.33 57.18 272.05"/>
      <polygon class="st6" points="142.82 272.05 100 247.33 100 296.77 142.82 272.05"/>
      <polygon class="st7" points="100 247.33 142.82 272.05 142.82 222.6 100 247.33"/>
      <polygon class="st8" points="185.64 247.33 142.82 222.6 142.82 272.05 185.64 247.33"/>
      <polygon class="st5" points="14.36 247.33 57.18 272.05 57.18 222.6 14.36 247.33"/>
      <g>
        <polygon class="st6" points="100 247.33 57.18 222.6 57.18 272.05 100 247.33"/>
        <polygon class="st2" points="100 247.33 57.18 222.6 57.18 272.05 100 247.33"/>
      </g>
      <g>
        <polygon class="st4" points="14.36 197.88 14.36 247.33 57.18 222.6 14.36 197.88"/>
        <polygon class="st0" points="14.36 197.88 14.36 247.33 57.18 222.6 14.36 197.88"/>
      </g>
      <polygon class="st1" points="14.36 148.43 14.36 197.88 57.18 173.16 14.36 148.43"/>
      <g>
        <polygon class="st4" points="57.18 222.6 57.18 173.16 14.36 197.88 57.18 222.6"/>
        <polygon class="st3" points="57.18 222.6 57.18 173.16 14.36 197.88 57.18 222.6"/>
      </g>
      <polygon class="st12" points="185.64 197.88 185.64 197.88 142.82 173.16 185.64 197.88"/>
      <polygon class="st11" points="185.64 247.33 185.64 197.88 142.82 222.6 185.64 247.33"/>
      <polygon class="st10" points="142.82 173.16 142.82 222.6 185.64 197.88 142.82 173.16"/>
    </g>
    <g>
      <polygon class="st12" points="57.18 90.75 100 66.02 142.82 90.75 142.82 140.19 185.64 164.92 185.64 115.47 185.64 66.02 142.82 41.3 100 16.58 57.18 41.3 14.36 66.02 14.36 115.47 14.36 115.47 57.18 140.19 57.18 90.75"/>
      <path class="st12" d="M200,189.78l-71.53-41.3v-49.45l-28.47-16.43-28.47,16.43v66.02L0,123.76V57.73L100,0l100,57.73v132.05ZM157.18,131.9l14.11,8.15v-65.74l-71.29-41.16L28.71,74.31v32.87l14.11,8.15v-32.87l57.18-33.01,57.18,33.01v49.45Z"/>
    </g>
    <polygon class="st13" points="25.06 72.2 100 28.94 174.94 72.2 174.94 146.37 153.53 134.01 153.53 84.57 100 53.66 46.47 84.57 46.47 134.01 25.06 121.62 25.06 72.2"/>
    <g>
      <polygon class="st6" points="142.82 41.3 100 16.58 100 66.02 142.82 41.3"/>
      <polygon class="st6" points="57.18 41.3 100 66.02 100 16.58 57.18 41.3"/>
      <polygon class="st7" points="100 66.02 57.18 41.3 57.18 90.75 100 66.02"/>
      <polygon class="st8" points="14.36 66.02 57.18 90.75 57.18 41.3 14.36 66.02"/>
      <polygon class="st5" points="185.64 66.02 142.82 41.3 142.82 90.75 185.64 66.02"/>
      <g>
        <polygon class="st6" points="100 66.02 142.82 90.75 142.82 41.3 100 66.02"/>
        <polygon class="st2" points="100 66.02 142.82 90.75 142.82 41.3 100 66.02"/>
      </g>
      <g>
        <polygon class="st4" points="185.64 115.47 185.64 66.02 142.82 90.75 185.64 115.47"/>
        <polygon class="st0" points="185.64 115.47 185.64 66.02 142.82 90.75 185.64 115.47"/>
      </g>
      <polygon class="st1" points="185.64 164.92 185.64 115.47 142.82 140.19 185.64 164.92"/>
      <g>
        <polygon class="st4" points="142.82 90.75 142.82 140.19 185.64 115.47 142.82 90.75"/>
        <polygon class="st3" points="142.82 90.75 142.82 140.19 185.64 115.47 142.82 90.75"/>
      </g>
      <polygon class="st12" points="14.36 115.47 14.36 115.47 57.18 140.19 14.36 115.47"/>
      <polygon class="st11" points="14.36 66.02 14.36 115.47 57.18 90.75 14.36 66.02"/>
      <polygon class="st10" points="57.18 140.19 57.18 90.75 14.36 115.47 57.18 140.19"/>
    </g>
    <polygon class="st9" points="14.36 115.47 14.36 148.43 57.18 173.16 57.18 140.19 14.36 115.47"/>
    <polygon class="st9" points="185.64 197.88 185.64 164.92 142.82 140.19 142.82 173.16 185.64 197.88"/>
    <polygon class="st13" points="25.06 72.2 100 28.94 174.94 72.2 174.94 191.73 153.53 179.34 153.53 84.57 100 53.66 46.47 84.57 46.47 166.74 25.06 154.35 25.06 72.2"/>
    <polygon class="st9" points="185.64 197.88 185.64 164.92 142.82 140.19 142.82 173.16 185.64 197.88"/>
    <polygon class="st9" points="14.36 115.47 14.36 148.43 57.18 173.16 57.18 140.19 14.36 115.47"/>
    <g>
      <polygon class="st6" points="142.82 41.3 100 16.58 100 66.02 142.82 41.3"/>
      <polygon class="st6" points="57.18 41.3 100 66.02 100 16.58 57.18 41.3"/>
      <polygon class="st7" points="100 66.02 57.18 41.3 57.18 90.75 100 66.02"/>
      <polygon class="st8" points="14.36 66.02 57.18 90.75 57.18 41.3 14.36 66.02"/>
      <polygon class="st5" points="185.64 66.02 142.82 41.3 142.82 90.75 185.64 66.02"/>
      <g>
        <polygon class="st6" points="100 66.02 142.82 90.75 142.82 41.3 100 66.02"/>
        <polygon class="st2" points="100 66.02 142.82 90.75 142.82 41.3 100 66.02"/>
      </g>
      <g>
        <polygon class="st4" points="185.64 115.47 185.64 66.02 142.82 90.75 185.64 115.47"/>
        <polygon class="st0" points="185.64 115.47 185.64 66.02 142.82 90.75 185.64 115.47"/>
      </g>
      <polygon class="st1" points="185.64 164.92 185.64 115.47 142.82 140.19 185.64 164.92"/>
      <g>
        <polygon class="st4" points="142.82 90.75 142.82 140.19 185.64 115.47 142.82 90.75"/>
        <polygon class="st3" points="142.82 90.75 142.82 140.19 185.64 115.47 142.82 90.75"/>
      </g>
      <polygon class="st12" points="14.36 115.47 14.36 115.47 57.18 140.19 14.36 115.47"/>
      <polygon class="st11" points="14.36 66.02 14.36 115.47 57.18 90.75 14.36 66.02"/>
      <polygon class="st10" points="57.18 140.19 57.18 90.75 14.36 115.47 57.18 140.19"/>
    </g>
  </g>
</svg>