<?xml version="1.0" encoding="UTF-8"?>
<svg id="Layer_1" xmlns="http://www.w3.org/2000/svg" version="1.1" viewBox="0 0 200 313.35">
  <!-- Generator: Adobe Illustrator 29.6.1, SVG Export Plug-In . SVG Version: 2.1.1 Build 9)  -->
  <defs>
    <style>
      .st0, .st1, .st2, .st3 {
        fill: #1d184c;
      }

      .st0, .st4 {
        opacity: .75;
      }

      .st5 {
        opacity: .5;
      }

      .st5, .st6, .st7, .st4, .st8, .st9, .st10 {
        fill: #164ca0;
      }

      .st11 {
        fill: #fff;
      }

      .st7 {
        fill-opacity: .75;
      }

      .st12 {
        fill: #f4f5f5;
      }

      .st2 {
        opacity: .25;
      }

      .st8 {
        fill-opacity: .5;
      }

      .st9 {
        fill-opacity: .1;
      }

      .st10 {
        fill-opacity: .25;
      }

      .st3 {
        opacity: .9;
      }
    </style>
  </defs>
  <rect class="st11" x="59.83" y="78.17" width="80.26" height="158.9"/>
  <g>
    <g>
      <polygon class="st11" points="142.82 222.6 100 247.33 57.18 222.6 57.18 173.16 14.36 148.43 14.36 197.88 14.36 247.33 57.18 272.05 100 296.77 142.82 272.05 185.64 247.33 185.64 197.88 185.64 197.88 142.82 173.16 142.82 222.6"/>
      <path class="st11" d="M100,313.35L0,255.62V123.57l71.53,41.3v49.45l28.47,16.43,28.47-16.43v-66.02l71.53,41.3v66.02l-100,57.73ZM28.71,239.04l71.29,41.16,71.29-41.16v-32.87l-14.11-8.15v32.87l-57.18,33.01-57.18-33.01v-49.45l-14.11-8.15v65.74Z"/>
    </g>
    <polygon class="st12" points="174.94 241.15 100 284.41 25.06 241.15 25.06 166.98 46.47 179.34 46.47 228.79 100 259.69 153.53 228.79 153.53 179.34 174.94 191.73 174.94 241.15"/>
    <g>
      <polygon class="st6" points="57.18 272.05 100 296.77 100 247.33 57.18 272.05"/>
      <polygon class="st6" points="142.82 272.05 100 247.33 100 296.77 142.82 272.05"/>
      <polygon class="st7" points="100 247.33 142.82 272.05 142.82 222.6 100 247.33"/>
      <polygon class="st8" points="185.64 247.33 142.82 222.6 142.82 272.05 185.64 247.33"/>
      <polygon class="st5" points="14.36 247.33 57.18 272.05 57.18 222.6 14.36 247.33"/>
      <g>
        <polygon class="st6" points="100 247.33 57.18 222.6 57.18 272.05 100 247.33"/>
        <polygon class="st2" points="100 247.33 57.18 222.6 57.18 272.05 100 247.33"/>
      </g>
      <g>
        <polygon class="st4" points="14.36 197.88 14.36 247.33 57.18 222.6 14.36 197.88"/>
        <polygon class="st0" points="14.36 197.88 14.36 247.33 57.18 222.6 14.36 197.88"/>
      </g>
      <polygon class="st1" points="14.36 148.43 14.36 197.88 57.18 173.16 14.36 148.43"/>
      <g>
        <polygon class="st4" points="57.18 222.6 57.18 173.16 14.36 197.88 57.18 222.6"/>
        <polygon class="st3" points="57.18 222.6 57.18 173.16 14.36 197.88 57.18 222.6"/>
      </g>
      <polygon class="st11" points="185.64 197.88 185.64 197.88 142.82 173.16 185.64 197.88"/>
      <polygon class="st10" points="185.64 247.33 185.64 197.88 142.82 222.6 185.64 247.33"/>
      <polygon class="st9" points="142.82 173.16 142.82 222.6 185.64 197.88 142.82 173.16"/>
    </g>
    <polygon class="st12" points="174.94 241.15 100 284.41 25.06 241.15 25.06 166.98 46.47 179.34 46.47 228.79 100 259.69 153.53 228.79 153.53 179.34 174.94 191.73 174.94 241.15"/>
    <g>
      <polygon class="st6" points="57.18 272.05 100 296.77 100 247.33 57.18 272.05"/>
      <polygon class="st6" points="142.82 272.05 100 247.33 100 296.77 142.82 272.05"/>
      <polygon class="st7" points="100 247.33 142.82 272.05 142.82 222.6 100 247.33"/>
      <polygon class="st8" points="185.64 247.33 142.82 222.6 142.82 272.05 185.64 247.33"/>
      <polygon class="st5" points="14.36 247.33 57.18 272.05 57.18 222.6 14.36 247.33"/>
      <g>
        <polygon class="st6" points="100 247.33 57.18 222.6 57.18 272.05 100 247.33"/>
        <polygon class="st2" points="100 247.33 57.18 222.6 57.18 272.05 100 247.33"/>
      </g>
      <g>
        <polygon class="st4" points="14.36 197.88 14.36 247.33 57.18 222.6 14.36 197.88"/>
        <polygon class="st0" points="14.36 197.88 14.36 247.33 57.18 222.6 14.36 197.88"/>
      </g>
      <polygon class="st1" points="14.36 148.43 14.36 197.88 57.18 173.16 14.36 148.43"/>
      <g>
        <polygon class="st4" points="57.18 222.6 57.18 173.16 14.36 197.88 57.18 222.6"/>
        <polygon class="st3" points="57.18 222.6 57.18 173.16 14.36 197.88 57.18 222.6"/>
      </g>
      <polygon class="st11" points="185.64 197.88 185.64 197.88 142.82 173.16 185.64 197.88"/>
      <polygon class="st10" points="185.64 247.33 185.64 197.88 142.82 222.6 185.64 247.33"/>
      <polygon class="st9" points="142.82 173.16 142.82 222.6 185.64 197.88 142.82 173.16"/>
    </g>
    <g>
      <polygon class="st11" points="57.18 90.75 100 66.02 142.82 90.75 142.82 140.19 185.64 164.92 185.64 115.47 185.64 66.02 142.82 41.3 100 16.58 57.18 41.3 14.36 66.02 14.36 115.47 14.36 115.47 57.18 140.19 57.18 90.75"/>
      <path class="st11" d="M200,189.78l-71.53-41.3v-49.45l-28.47-16.43-28.47,16.43v66.02L0,123.76V57.73L100,0l100,57.73v132.05ZM157.18,131.9l14.11,8.15v-65.74l-71.29-41.16L28.71,74.31v32.87l14.11,8.15v-32.87l57.18-33.01,57.18,33.01v49.45Z"/>
    </g>
    <polygon class="st12" points="25.06 72.2 100 28.94 174.94 72.2 174.94 146.37 153.53 134.01 153.53 84.57 100 53.66 46.47 84.57 46.47 134.01 25.06 121.62 25.06 72.2"/>
    <g>
      <polygon class="st6" points="142.82 41.3 100 16.58 100 66.02 142.82 41.3"/>
      <polygon class="st6" points="57.18 41.3 100 66.02 100 16.58 57.18 41.3"/>
      <polygon class="st7" points="100 66.02 57.18 41.3 57.18 90.75 100 66.02"/>
      <polygon class="st8" points="14.36 66.02 57.18 90.75 57.18 41.3 14.36 66.02"/>
      <polygon class="st5" points="185.64 66.02 142.82 41.3 142.82 90.75 185.64 66.02"/>
      <g>
        <polygon class="st6" points="100 66.02 142.82 90.75 142.82 41.3 100 66.02"/>
        <polygon class="st2" points="100 66.02 142.82 90.75 142.82 41.3 100 66.02"/>
      </g>
      <g>
        <polygon class="st4" points="185.64 115.47 185.64 66.02 142.82 90.75 185.64 115.47"/>
        <polygon class="st0" points="185.64 115.47 185.64 66.02 142.82 90.75 185.64 115.47"/>
      </g>
      <polygon class="st1" points="185.64 164.92 185.64 115.47 142.82 140.19 185.64 164.92"/>
      <g>
        <polygon class="st4" points="142.82 90.75 142.82 140.19 185.64 115.47 142.82 90.75"/>
        <polygon class="st3" points="142.82 90.75 142.82 140.19 185.64 115.47 142.82 90.75"/>
      </g>
      <polygon class="st11" points="14.36 115.47 14.36 115.47 57.18 140.19 14.36 115.47"/>
      <polygon class="st10" points="14.36 66.02 14.36 115.47 57.18 90.75 14.36 66.02"/>
      <polygon class="st9" points="57.18 140.19 57.18 90.75 14.36 115.47 57.18 140.19"/>
    </g>
    <polygon class="st12" points="25.06 72.2 100 28.94 174.94 72.2 174.94 146.37 153.53 134.01 153.53 84.57 100 53.66 46.47 84.57 46.47 134.01 25.06 121.62 25.06 72.2"/>
    <g>
      <polygon class="st6" points="142.82 41.3 100 16.58 100 66.02 142.82 41.3"/>
      <polygon class="st6" points="57.18 41.3 100 66.02 100 16.58 57.18 41.3"/>
      <polygon class="st7" points="100 66.02 57.18 41.3 57.18 90.75 100 66.02"/>
      <polygon class="st8" points="14.36 66.02 57.18 90.75 57.18 41.3 14.36 66.02"/>
      <polygon class="st5" points="185.64 66.02 142.82 41.3 142.82 90.75 185.64 66.02"/>
      <g>
        <polygon class="st6" points="100 66.02 142.82 90.75 142.82 41.3 100 66.02"/>
        <polygon class="st2" points="100 66.02 142.82 90.75 142.82 41.3 100 66.02"/>
      </g>
      <g>
        <polygon class="st4" points="185.64 115.47 185.64 66.02 142.82 90.75 185.64 115.47"/>
        <polygon class="st0" points="185.64 115.47 185.64 66.02 142.82 90.75 185.64 115.47"/>
      </g>
      <polygon class="st1" points="185.64 164.92 185.64 115.47 142.82 140.19 185.64 164.92"/>
      <g>
        <polygon class="st4" points="142.82 90.75 142.82 140.19 185.64 115.47 142.82 90.75"/>
        <polygon class="st3" points="142.82 90.75 142.82 140.19 185.64 115.47 142.82 90.75"/>
      </g>
      <polygon class="st11" points="14.36 115.47 14.36 115.47 57.18 140.19 14.36 115.47"/>
      <polygon class="st10" points="14.36 66.02 14.36 115.47 57.18 90.75 14.36 66.02"/>
      <polygon class="st9" points="57.18 140.19 57.18 90.75 14.36 115.47 57.18 140.19"/>
    </g>
  </g>
  <g>
    <g>
      <g>
        <path class="st11" d="M13.42,166.84c-2.05-1.18-3.52-2.83-4.41-4.95-.9-2.12-1.34-4.67-1.34-7.64v-26.47c0-2.97.45-5.5,1.34-7.6.89-2.1,2.37-3.75,4.41-4.95,2.05-1.2,4.76-1.8,8.13-1.8s6.16.6,8.21,1.8c2.05,1.2,3.52,2.85,4.41,4.95.89,2.1,1.34,4.63,1.34,7.6v10.74h-10.28v-11.36c0-1.58-.26-2.72-.77-3.41-.51-.69-1.46-1.04-2.84-1.04s-2.34.35-2.88,1.04c-.54.69-.81,1.83-.81,3.41v27.78c0,1.53.26,2.65.77,3.34.51.69,1.46,1.04,2.84,1.04s2.34-.33,2.88-1c.54-.66.81-1.79.81-3.38v-11.43h10.28v10.74c0,2.97-.44,5.51-1.3,7.64-.87,2.12-2.34,3.77-4.41,4.95-2.07,1.18-4.82,1.77-8.25,1.77s-6.09-.59-8.13-1.77Z"/>
        <path class="st11" d="M21.55,172.62c-4.07,0-7.48-.77-10.14-2.3-2.82-1.62-4.87-3.93-6.11-6.87-1.1-2.61-1.66-5.7-1.66-9.2v-26.47c0-3.5.56-6.59,1.66-9.17,1.24-2.89,3.28-5.19,6.07-6.84,2.66-1.56,6.09-2.36,10.17-2.36s7.58.79,10.25,2.36c2.79,1.64,4.84,3.94,6.07,6.84,1.11,2.59,1.67,5.68,1.67,9.18v26.47c0,3.48-.54,6.56-1.6,9.16-1.22,2.97-3.29,5.3-6.15,6.92-2.67,1.52-6.12,2.29-10.23,2.29ZM21.55,117.45c-2.63,0-4.69.42-6.1,1.25-1.3.76-2.2,1.76-2.75,3.06-.68,1.59-1.02,3.61-1.02,6.02v26.47c0,2.42.35,4.46,1.03,6.07.56,1.32,1.42,2.28,2.71,3.03h0c1.42.82,3.48,1.23,6.13,1.23s4.81-.42,6.26-1.24c1.3-.74,2.15-1.68,2.68-2.98.67-1.63,1-3.68,1-6.11v-6.72h-2.24v7.41c0,2.56-.56,4.49-1.7,5.91-.91,1.13-2.7,2.49-6,2.49s-5.17-1.45-6.07-2.66c-1.05-1.41-1.56-3.29-1.56-5.73v-27.78c0-2.53.54-4.45,1.65-5.88.92-1.18,2.71-2.59,6.05-2.59s5.17,1.45,6.07,2.66c1.05,1.42,1.56,3.32,1.56,5.81v7.34h2.24v-6.72c0-2.41-.34-4.43-1.02-6.02-.55-1.3-1.45-2.3-2.75-3.06-1.41-.83-3.49-1.25-6.17-1.25ZM21.09,125.9h0Z"/>
      </g>
      <g>
        <path class="st11" d="M46.76,164.81c-2.12-2.53-3.18-6.05-3.18-10.55v-26.47c0-4.55,1.06-8.08,3.18-10.59,2.12-2.51,5.69-3.76,10.7-3.76s8.58,1.25,10.7,3.76c2.12,2.51,3.18,6.04,3.18,10.59v26.47c0,4.5-1.06,8.02-3.18,10.55-2.12,2.53-5.69,3.8-10.7,3.8s-8.58-1.27-10.7-3.8ZM60.26,158.32c.54-.66.81-1.82.81-3.45v-27.7c0-1.58-.26-2.72-.77-3.41-.51-.69-1.46-1.04-2.84-1.04s-2.33.35-2.84,1.04c-.51.69-.77,1.83-.77,3.41v27.78c0,1.53.26,2.65.77,3.34.51.69,1.46,1.04,2.84,1.04s2.26-.33,2.8-1Z"/>
        <path class="st11" d="M57.46,172.62c-6.24,0-10.87-1.76-13.79-5.24h0c-2.74-3.26-4.12-7.68-4.12-13.13v-26.47c0-5.51,1.39-9.95,4.14-13.19,2.91-3.44,7.55-5.18,13.77-5.18s10.86,1.74,13.77,5.18c2.75,3.25,4.14,7.68,4.14,13.19v26.47c0,5.45-1.39,9.87-4.12,13.13-2.91,3.48-7.55,5.24-13.79,5.24ZM57.46,117.45c-3.75,0-6.32.79-7.64,2.34-1.48,1.75-2.23,4.44-2.23,7.99v26.47c0,3.51.76,6.19,2.25,7.97h0c1.31,1.57,3.88,2.36,7.62,2.36s6.31-.79,7.63-2.36c1.49-1.78,2.24-4.46,2.24-7.97v-26.47c0-3.55-.75-6.24-2.23-7.99-1.31-1.55-3.88-2.34-7.64-2.34ZM57.46,163.34c-3.39,0-5.17-1.45-6.07-2.66-1.05-1.41-1.56-3.29-1.56-5.73v-27.78c0-2.5.51-4.4,1.56-5.81.9-1.21,2.68-2.66,6.07-2.66s5.17,1.45,6.07,2.66c1.05,1.42,1.56,3.32,1.56,5.81v27.7c0,2.61-.56,4.57-1.7,5.98-.92,1.14-2.69,2.49-5.93,2.49ZM57.99,156.12h0Z"/>
      </g>
      <g>
        <path class="st11" d="M79.64,114.12h13.58c4.96,0,8.52,1.07,10.67,3.22,2.15,2.15,3.22,5.04,3.22,8.67v5.76c0,2.56-.64,4.67-1.92,6.33-1.28,1.66-3.27,2.49-5.99,2.49h-.61v.15h.54c3.07,0,5.22.78,6.45,2.34,1.23,1.56,1.84,3.44,1.84,5.64v6.75c0,3.63-1.1,6.6-3.3,8.9-2.2,2.3-5.73,3.45-10.59,3.45h-13.89v-53.72ZM96.29,157.52c.56-.69.84-1.83.84-3.41v-5.91c0-1.23-.27-2.16-.81-2.8-.54-.64-1.55-.96-3.03-.96h-5.22v-7.67h4.91c1.53,0,2.57-.28,3.11-.84.54-.56.81-1.51.81-2.84v-5.76c0-1.33-.28-2.31-.84-2.95-.56-.64-1.48-.96-2.76-.96h-3.45v35.15h3.68c1.28,0,2.2-.35,2.76-1.04Z"/>
        <path class="st11" d="M93.53,171.86h-17.91v-61.75h17.6c6.05,0,10.59,1.48,13.51,4.4,2.92,2.92,4.4,6.79,4.4,11.51v5.76c0,3.36-.87,6.24-2.6,8.58.07.08.14.17.21.25,1.79,2.28,2.7,5.01,2.7,8.13v6.75c0,4.68-1.48,8.61-4.41,11.68-2.98,3.12-7.52,4.7-13.5,4.7ZM83.66,163.82h9.87c3.7,0,6.28-.74,7.68-2.21,1.47-1.54,2.19-3.54,2.19-6.12v-6.75c0-1.3-.31-2.3-.98-3.15-.27-.34-.92-.59-1.82-.72.37.98.56,2.1.56,3.33v5.91c0,2.56-.57,4.51-1.75,5.95h0c-.94,1.15-2.72,2.52-5.88,2.52h-7.7v-14.12h-1.76v-15.71h1.76v-13.35h7.47c3.09,0,4.85,1.26,5.78,2.32,1.23,1.4,1.85,3.28,1.85,5.61v5.76c0,1.29-.19,2.43-.56,3.41,1.14-.19,1.5-.66,1.64-.84.73-.95,1.08-2.22,1.08-3.88v-5.76c0-2.55-.67-4.45-2.05-5.83-1.34-1.34-4.04-2.05-7.82-2.05h-9.56v45.68ZM93.87,132.67h0Z"/>
      </g>
      <g>
        <path class="st11" d="M123.76,167.84h-10.36l5.22-44.58,8.29.15-3.15,44.43ZM116.09,114.12h20.1l6.29,53.72h-10.59l-3.07-44.28h-12.74v-9.44ZM122.99,144.89h9.98v8.75h-9.98v-8.75Z"/>
        <path class="st11" d="M147,171.86h-18.86l-.32-4.55-.32,4.55h-18.62l5.18-44.28h-2v-17.48h27.7l7.23,61.75ZM135.65,163.82h2.32l-.98-8.35v2.19h-1.77l.43,6.16ZM117.92,163.82h2.1l.44-6.16h-1.48v-2.85l-1.05,9.01ZM134.06,140.87h1.22l-2.66-22.73h-12.51v1.12l11.11.21v.07s1.36,0,1.36,0l1.48,21.33ZM120.61,140.87h1.04l.94-13.29h-.42l-1.56,13.29Z"/>
      </g>
      <g>
        <path class="st11" d="M149.39,114.12h10.21v44.43h8.82v9.29h-19.03v-53.72Z"/>
        <path class="st11" d="M172.44,171.86h-27.07v-61.75h18.25v44.43h8.82v17.32ZM153.41,163.82h10.99v-1.25h-8.82v-44.43h-2.17v45.68Z"/>
      </g>
      <g>
        <path class="st11" d="M177.55,123.41h-6.68v-9.29h23.79v9.29h-6.83v44.43h-10.28v-44.43Z"/>
        <path class="st11" d="M191.86,171.86h-18.32v-44.43h-6.68v-17.32h31.83v17.32h-6.83v44.43ZM181.57,163.82h2.24v-44.43h6.83v-1.25h-15.75v1.25h6.68v44.43Z"/>
      </g>
      <g>
        <path class="st12" d="M8.27,194.75c-.41-.47-.62-1.19-.62-2.14v-4.36h1.43v4.38c0,.57.09.97.27,1.22.18.25.49.37.93.37s.75-.12.95-.37c.19-.25.29-.65.29-1.22v-4.17c0-.49-.1-.86-.29-1.11s-.56-.51-1.11-.78l-.66-.27c-.64-.29-1.1-.63-1.37-1.03-.27-.39-.41-.92-.41-1.58v-4.93c0-.95.2-1.67.6-2.15.4-.48,1.07-.73,2-.73s1.61.25,2.03.74c.42.49.63,1.21.63,2.14v5.02h-1.43v-5.04c0-.58-.1-1-.29-1.23-.19-.24-.51-.36-.95-.36s-.73.12-.93.36c-.2.24-.3.65-.3,1.23v4.71c0,.51.1.88.29,1.11.19.23.57.48,1.14.75l.66.3c.66.27,1.12.61,1.4,1,.27.39.41.92.41,1.58v4.41c0,.93-.21,1.64-.62,2.12s-1.09.73-2.04.73-1.6-.24-2.01-.71Z"/>
        <path class="st11" d="M10.28,197.76c-2.02,0-3.16-.82-3.75-1.51h0c-.78-.9-1.18-2.13-1.18-3.64v-6.65h.48c-.3-.65-.46-1.41-.46-2.25v-4.93c0-1.5.38-2.71,1.13-3.62.59-.71,1.72-1.56,3.77-1.56s3.18.84,3.78,1.55c.78.92,1.18,2.14,1.18,3.63v7.31h-.4c.26.62.4,1.33.4,2.12v4.41c0,1.49-.39,2.7-1.16,3.61-.59.7-1.74,1.53-3.79,1.53Z"/>
      </g>
      <g>
        <path class="st12" d="M19.69,194.67c-.41-.49-.62-1.19-.62-2.08v-13.87c0-.9.21-1.59.62-2.1.41-.5,1.09-.75,2.04-.75s1.58.25,1.99.75c.41.5.62,1.2.62,2.1v13.87c0,.9-.21,1.59-.62,2.08-.41.49-1.08.74-2.01.74s-1.6-.25-2.01-.74ZM22.67,193.75c.16-.23.25-.6.25-1.11v-13.98c0-.53-.08-.91-.25-1.14-.16-.23-.47-.34-.93-.34s-.8.11-.97.34c-.17.23-.26.61-.26,1.14v13.98c0,.51.09.88.26,1.11.17.23.5.34.97.34s.77-.11.93-.34Z"/>
        <path class="st11" d="M21.71,197.7c-2.04,0-3.18-.85-3.78-1.57h0s0,0,0,0h0c-.76-.92-1.15-2.11-1.15-3.55v-13.87c0-1.43.38-2.63,1.14-3.55.6-.73,1.74-1.6,3.82-1.6s3.17.87,3.76,1.59c.75.92,1.14,2.12,1.14,3.55v13.87c0,1.44-.39,2.64-1.15,3.55-.59.71-1.73,1.57-3.78,1.57Z"/>
      </g>
      <g>
        <path class="st12" d="M30.59,176.06h4.25v1.32h-2.82v8.03h2.58v1.32h-2.58v8.52h-1.43v-19.18Z"/>
        <polygon class="st11" points="34.31 197.54 28.29 197.54 28.29 173.76 37.13 173.76 37.13 179.67 34.31 179.67 34.31 183.11 36.88 183.11 36.88 189.02 34.31 189.02 34.31 197.54"/>
      </g>
      <g>
        <path class="st12" d="M41.88,177.35h-2v-1.29h5.4v1.29h-2v17.9h-1.4v-17.9Z"/>
        <polygon class="st11" points="45.57 197.54 39.58 197.54 39.58 179.64 37.58 179.64 37.58 173.76 47.57 173.76 47.57 179.64 45.57 179.64 45.57 197.54"/>
      </g>
      <g>
        <path class="st12" d="M50.65,176.06h1.51l.71,17.95h.99l-.3,1.23h-1.67l-1.23-19.18ZM54.35,176.06h1.75l1.23,19.18h-1.01l-1.12-17.62h.05l-1.12,17.62h-1.01l1.23-19.18ZM56.62,194.01h.99l.71-17.95h1.51l-1.23,19.18h-1.7l-.27-1.23Z"/>
        <polygon class="st11" points="60.75 197.54 49.73 197.54 48.2 173.76 62.28 173.76 60.75 197.54"/>
      </g>
      <g>
        <path class="st12" d="M66.51,195.24h-1.42l1.26-17.9,1.18.03-1.01,17.87ZM65.72,176.06h3.4l1.32,19.18h-1.4l-.99-17.84h-2.33v-1.34ZM66.46,186.64h2.66v1.21h-2.66v-1.21Z"/>
        <polygon class="st11" points="72.89 197.54 62.62 197.54 63.88 179.7 63.42 179.7 63.42 173.76 71.26 173.76 72.89 197.54"/>
      </g>
      <g>
        <path class="st12" d="M76.19,176.06h2.63c.95,0,1.63.23,2.04.7s.62,1.12.62,1.96v5.86c0,.53-.11.98-.34,1.36-.23.37-.61.58-1.14.62v.03c.57.02.96.19,1.18.52.22.33.33.75.33,1.26v6.88h-1.45v-6.96c0-.38-.08-.68-.25-.88s-.47-.3-.9-.3h-1.29v8.14h-1.43v-19.18ZM79.79,185.69c.17-.19.26-.5.26-.92v-5.97c0-.51-.09-.88-.26-1.1-.17-.22-.5-.33-.97-.33h-1.21v8.61h1.29c.42,0,.72-.1.89-.29Z"/>
        <path class="st11" d="M83.8,197.54h-9.91v-23.78h4.93c1.63,0,2.9.5,3.76,1.48.79.9,1.19,2.07,1.19,3.48v5.86c0,.68-.11,1.31-.34,1.88.25.57.37,1.2.37,1.9v9.18Z"/>
      </g>
      <g>
        <path class="st12" d="M87.73,176.06h4.25v1.32h-2.82v16.55h2.82v1.32h-4.25v-19.18ZM88.44,184.5h3.15v1.34h-3.15v-1.34Z"/>
        <polygon class="st11" points="94.27 197.54 85.43 197.54 85.43 173.76 94.27 173.76 94.27 179.67 91.45 179.67 91.45 182.2 93.89 182.2 93.89 188.14 91.45 188.14 91.45 191.63 94.27 191.63 94.27 197.54"/>
      </g>
      <g>
        <path class="st12" d="M104.9,194.75c-.41-.47-.62-1.19-.62-2.14v-4.36h1.43v4.38c0,.57.09.97.27,1.22.18.25.49.37.93.37s.75-.12.95-.37c.19-.25.29-.65.29-1.22v-4.17c0-.49-.1-.86-.29-1.11s-.56-.51-1.11-.78l-.66-.27c-.64-.29-1.1-.63-1.37-1.03-.27-.39-.41-.92-.41-1.58v-4.93c0-.95.2-1.67.6-2.15.4-.48,1.07-.73,2-.73s1.61.25,2.03.74c.42.49.63,1.21.63,2.14v5.02h-1.43v-5.04c0-.58-.1-1-.29-1.23-.19-.24-.51-.36-.95-.36s-.73.12-.93.36c-.2.24-.3.65-.3,1.23v4.71c0,.51.1.88.29,1.11s.57.48,1.14.75l.66.3c.66.27,1.12.61,1.4,1,.27.39.41.92.41,1.58v4.41c0,.93-.21,1.64-.62,2.12-.41.48-1.09.73-2.04.73s-1.6-.24-2.01-.71Z"/>
        <path class="st11" d="M106.91,197.76c-2.02,0-3.16-.82-3.75-1.51-.78-.9-1.18-2.13-1.18-3.64v-6.65h.48c-.3-.65-.46-1.41-.46-2.25v-4.93c0-1.5.38-2.71,1.13-3.62.59-.71,1.72-1.56,3.77-1.56s3.18.84,3.78,1.55c.78.92,1.18,2.14,1.18,3.63v7.31h-.4c.26.62.4,1.33.4,2.12v4.41c0,1.49-.39,2.7-1.16,3.61-.6.7-1.74,1.54-3.79,1.54Z"/>
      </g>
      <g>
        <path class="st12" d="M116.32,194.67c-.41-.49-.62-1.19-.62-2.08v-13.87c0-.9.21-1.59.62-2.1.41-.5,1.09-.75,2.04-.75s1.58.25,1.99.75c.41.5.62,1.2.62,2.1v13.87c0,.9-.21,1.59-.62,2.08-.41.49-1.08.74-2.01.74s-1.6-.25-2.01-.74ZM119.3,193.75c.16-.23.25-.6.25-1.11v-13.98c0-.53-.08-.91-.25-1.14-.16-.23-.47-.34-.93-.34s-.8.11-.97.34c-.17.23-.26.61-.26,1.14v13.98c0,.51.09.88.26,1.11.17.23.5.34.97.34s.77-.11.93-.34Z"/>
        <path class="st11" d="M118.34,197.7c-2.04,0-3.18-.85-3.78-1.57-.76-.91-1.15-2.11-1.15-3.55v-13.87c0-1.44.38-2.63,1.14-3.55.6-.73,1.74-1.6,3.82-1.6s3.17.87,3.76,1.59c.75.92,1.14,2.12,1.14,3.55v13.87c0,1.44-.39,2.64-1.15,3.55-.59.71-1.73,1.57-3.78,1.57Z"/>
      </g>
      <g>
        <path class="st12" d="M127.22,176.06h1.43v17.87h2.74v1.32h-4.17v-19.18Z"/>
        <polygon class="st11" points="133.68 197.54 124.92 197.54 124.92 173.76 130.94 173.76 130.94 191.63 133.68 191.63 133.68 197.54"/>
      </g>
      <g>
        <path class="st12" d="M137.26,194.67c-.41-.49-.62-1.19-.62-2.08v-16.53h1.42v16.58c0,.51.09.88.26,1.11.17.23.5.34.97.34s.79-.11.96-.34c.16-.23.25-.6.25-1.11v-16.58h1.42v16.53c0,.9-.2,1.59-.6,2.08-.4.49-1.08.74-2.03.74s-1.63-.25-2.04-.74Z"/>
        <path class="st11" d="M139.3,197.7c-2.07,0-3.21-.85-3.81-1.57-.76-.91-1.15-2.11-1.15-3.55v-18.82h9.88v18.82c0,1.43-.38,2.62-1.12,3.53-.59.72-1.73,1.59-3.81,1.59Z"/>
      </g>
      <g>
        <path class="st12" d="M149.47,177.35h-2v-1.29h5.4v1.29h-2v17.9h-1.4v-17.9Z"/>
        <polygon class="st11" points="153.16 197.54 147.17 197.54 147.17 179.64 145.17 179.64 145.17 173.76 155.16 173.76 155.16 179.64 153.16 179.64 153.16 197.54"/>
      </g>
      <g>
        <path class="st12" d="M158.38,176.06h1.43v19.18h-1.43v-19.18Z"/>
        <rect class="st11" x="156.08" y="173.76" width="6.02" height="23.78"/>
      </g>
      <g>
        <path class="st12" d="M166.64,194.67c-.41-.49-.62-1.19-.62-2.08v-13.87c0-.9.21-1.59.62-2.1.41-.5,1.09-.75,2.04-.75s1.58.25,1.99.75c.41.5.62,1.2.62,2.1v13.87c0,.9-.21,1.59-.62,2.08-.41.49-1.08.74-2.01.74s-1.6-.25-2.01-.74ZM169.61,193.75c.16-.23.25-.6.25-1.11v-13.98c0-.53-.08-.91-.25-1.14-.16-.23-.47-.34-.93-.34s-.8.11-.97.34c-.17.23-.26.61-.26,1.14v13.98c0,.51.09.88.26,1.11.17.23.5.34.97.34s.77-.11.93-.34Z"/>
        <path class="st11" d="M168.65,197.7c-2.04,0-3.18-.85-3.78-1.57h0s0,0,0,0h0c-.76-.91-1.15-2.11-1.15-3.55v-13.87c0-1.43.38-2.63,1.13-3.55.6-.73,1.74-1.6,3.82-1.6s3.17.87,3.76,1.59c.75.92,1.14,2.12,1.14,3.55v13.87c0,1.44-.39,2.64-1.15,3.55-.59.71-1.73,1.57-3.78,1.57Z"/>
      </g>
      <g>
        <path class="st12" d="M178.77,177.51h-1.23v-1.45h2.22l2.41,17.73h1.23v1.45h-2.25l-2.38-17.73ZM177.53,177.4h.96l.41,17.84h-1.37v-17.84ZM182.03,176.06h1.37v17.87h-.96l-.41-17.87Z"/>
        <rect class="st11" x="175.23" y="173.76" width="10.46" height="23.78"/>
      </g>
      <g>
        <path class="st12" d="M190.15,194.75c-.41-.47-.62-1.19-.62-2.14v-4.36h1.43v4.38c0,.57.09.97.27,1.22.18.25.49.37.93.37s.75-.12.95-.37c.19-.25.29-.65.29-1.22v-4.17c0-.49-.1-.86-.29-1.11s-.56-.51-1.11-.78l-.66-.27c-.64-.29-1.1-.63-1.37-1.03-.27-.39-.41-.92-.41-1.58v-4.93c0-.95.2-1.67.6-2.15.4-.48,1.07-.73,2-.73s1.61.25,2.03.74c.42.49.63,1.21.63,2.14v5.02h-1.43v-5.04c0-.58-.1-1-.29-1.23-.19-.24-.51-.36-.95-.36s-.73.12-.93.36c-.2.24-.3.65-.3,1.23v4.71c0,.51.1.88.29,1.11s.57.48,1.14.75l.66.3c.66.27,1.12.61,1.4,1,.27.39.41.92.41,1.58v4.41c0,.93-.21,1.64-.62,2.12-.41.48-1.09.73-2.04.73s-1.6-.24-2.01-.71Z"/>
        <path class="st11" d="M192.17,197.76c-2.02,0-3.16-.82-3.75-1.51-.78-.9-1.18-2.13-1.18-3.64v-6.65h.48c-.3-.65-.46-1.41-.46-2.25v-4.93c0-1.5.38-2.71,1.13-3.62.59-.71,1.72-1.56,3.77-1.56s3.18.84,3.78,1.55c.78.92,1.18,2.14,1.18,3.63v7.31h-.4c.26.62.4,1.33.4,2.12v4.41c0,1.49-.39,2.7-1.16,3.61-.6.7-1.74,1.54-3.79,1.54Z"/>
      </g>
    </g>
    <g>
      <polygon class="st11" points="189.54 195.24 12.94 195.24 12.94 125.63 189.54 127.13 189.54 195.24"/>
      <path class="st11" d="M189.54,197.54H12.94c-1.27,0-2.3-1.03-2.3-2.3v-69.61c0-.61.24-1.2.68-1.63.44-.43,1.02-.65,1.64-.67l176.6,1.5c1.26.01,2.28,1.04,2.28,2.3v68.11c0,1.27-1.03,2.3-2.3,2.3ZM15.23,192.95h172v-63.54l-172-1.46v65Z"/>
    </g>
    <g>
      <path class="st6" d="M13.42,166.84c-2.05-1.18-3.52-2.83-4.41-4.95-.9-2.12-1.34-4.67-1.34-7.64v-26.47c0-2.97.45-5.5,1.34-7.6.89-2.1,2.37-3.75,4.41-4.95,2.05-1.2,4.76-1.8,8.13-1.8s6.16.6,8.21,1.8c2.05,1.2,3.52,2.85,4.41,4.95.89,2.1,1.34,4.63,1.34,7.6v10.74h-10.28v-11.36c0-1.59-.26-2.72-.77-3.41-.51-.69-1.46-1.04-2.84-1.04s-2.34.34-2.88,1.04c-.54.69-.81,1.83-.81,3.41v27.78c0,1.53.26,2.65.77,3.34.51.69,1.46,1.04,2.84,1.04s2.34-.33,2.88-1c.54-.66.81-1.79.81-3.38v-11.43h10.28v10.74c0,2.97-.44,5.51-1.3,7.64-.87,2.12-2.34,3.77-4.41,4.95-2.07,1.18-4.82,1.76-8.25,1.76s-6.09-.59-8.13-1.76Z"/>
      <path class="st6" d="M46.76,164.81c-2.12-2.53-3.18-6.05-3.18-10.55v-26.47c0-4.55,1.06-8.08,3.18-10.59,2.12-2.51,5.69-3.76,10.7-3.76s8.58,1.25,10.7,3.76c2.12,2.51,3.18,6.04,3.18,10.59v26.47c0,4.5-1.06,8.02-3.18,10.55-2.12,2.53-5.69,3.8-10.7,3.8s-8.58-1.27-10.7-3.8ZM60.26,158.32c.54-.66.81-1.82.81-3.45v-27.7c0-1.59-.26-2.72-.77-3.41-.51-.69-1.46-1.04-2.84-1.04s-2.33.34-2.84,1.04c-.51.69-.77,1.83-.77,3.41v27.78c0,1.53.26,2.65.77,3.34.51.69,1.46,1.04,2.84,1.04s2.26-.33,2.8-1Z"/>
      <path class="st6" d="M79.64,114.12h13.58c4.96,0,8.52,1.07,10.67,3.22,2.15,2.15,3.22,5.04,3.22,8.67v5.76c0,2.56-.64,4.67-1.92,6.33-1.28,1.66-3.27,2.49-5.99,2.49h-.61v.15h.54c3.07,0,5.22.78,6.45,2.34,1.23,1.56,1.84,3.44,1.84,5.64v6.75c0,3.63-1.1,6.6-3.3,8.9-2.2,2.3-5.73,3.45-10.59,3.45h-13.89v-53.72ZM96.29,157.52c.56-.69.84-1.83.84-3.42v-5.91c0-1.23-.27-2.16-.81-2.8-.54-.64-1.55-.96-3.03-.96h-5.22v-7.67h4.91c1.53,0,2.57-.28,3.11-.84.54-.56.81-1.51.81-2.84v-5.75c0-1.33-.28-2.31-.84-2.95-.56-.64-1.48-.96-2.76-.96h-3.45v35.15h3.68c1.28,0,2.2-.35,2.76-1.04Z"/>
      <path class="st6" d="M123.76,167.84h-10.36l5.22-44.58,8.29.15-3.15,44.43ZM116.09,114.12h20.1l6.29,53.72h-10.59l-3.07-44.28h-12.74v-9.44ZM122.99,144.89h9.98v8.75h-9.98v-8.75Z"/>
      <path class="st6" d="M149.39,114.12h10.21v44.43h8.82v9.28h-19.03v-53.72Z"/>
      <path class="st6" d="M177.55,123.41h-6.68v-9.28h23.79v9.28h-6.83v44.43h-10.28v-44.43Z"/>
      <path class="st6" d="M8.26,194.75c-.41-.47-.62-1.19-.62-2.14v-4.36h1.42v4.38c0,.57.09.97.27,1.22.18.25.49.37.93.37s.75-.12.95-.37.29-.65.29-1.22v-4.17c0-.49-.1-.86-.29-1.11s-.56-.51-1.11-.78l-.66-.27c-.64-.29-1.1-.63-1.37-1.03-.27-.39-.41-.92-.41-1.58v-4.93c0-.95.2-1.67.6-2.15.4-.48,1.07-.73,2-.73s1.61.25,2.03.74c.42.49.63,1.21.63,2.14v5.02h-1.43v-5.04c0-.58-.1-1-.29-1.23-.19-.24-.51-.36-.95-.36s-.73.12-.93.36c-.2.24-.3.65-.3,1.23v4.71c0,.51.1.88.29,1.11.19.23.57.48,1.14.75l.66.3c.66.27,1.12.61,1.4,1,.27.39.41.92.41,1.58v4.41c0,.93-.21,1.64-.62,2.12-.41.48-1.09.73-2.04.73s-1.6-.24-2.01-.71Z"/>
      <path class="st6" d="M19.69,194.67c-.41-.49-.62-1.19-.62-2.08v-13.87c0-.89.21-1.59.62-2.1.41-.5,1.09-.75,2.04-.75s1.58.25,1.99.75.62,1.2.62,2.1v13.87c0,.9-.21,1.59-.62,2.08-.41.49-1.08.74-2.01.74s-1.6-.25-2.01-.74ZM22.67,193.75c.16-.23.25-.6.25-1.11v-13.98c0-.53-.08-.91-.25-1.14s-.48-.34-.93-.34-.8.11-.97.34c-.17.23-.26.61-.26,1.14v13.98c0,.51.09.88.26,1.11.17.23.5.34.97.34s.77-.11.93-.34Z"/>
      <path class="st6" d="M30.59,176.06h4.25v1.32h-2.82v8.03h2.58v1.32h-2.58v8.52h-1.42v-19.18Z"/>
      <path class="st6" d="M41.88,177.35h-2v-1.29h5.4v1.29h-2v17.9h-1.4v-17.9Z"/>
      <path class="st6" d="M50.65,176.06h1.51l.71,17.95h.99l-.3,1.23h-1.67l-1.23-19.18ZM54.35,176.06h1.75l1.23,19.18h-1.01l-1.12-17.62h.05l-1.12,17.62h-1.01l1.23-19.18ZM56.62,194.01h.99l.71-17.95h1.51l-1.23,19.18h-1.7l-.27-1.23Z"/>
      <path class="st6" d="M66.51,195.24h-1.43l1.26-17.9,1.18.03-1.01,17.87ZM65.72,176.06h3.4l1.32,19.18h-1.4l-.99-17.84h-2.33v-1.34ZM66.46,186.64h2.66v1.21h-2.66v-1.21Z"/>
      <path class="st6" d="M76.19,176.06h2.63c.95,0,1.63.23,2.04.7.41.47.62,1.12.62,1.96v5.87c0,.53-.11.98-.34,1.36-.23.37-.61.58-1.14.62v.03c.57.02.96.19,1.18.52.22.33.33.75.33,1.26v6.88h-1.45v-6.96c0-.38-.08-.68-.25-.88-.16-.2-.47-.3-.9-.3h-1.29v8.14h-1.42v-19.18ZM79.79,185.69c.17-.19.26-.5.26-.92v-5.97c0-.51-.09-.88-.26-1.1-.17-.22-.5-.33-.97-.33h-1.21v8.61h1.29c.42,0,.72-.1.89-.29Z"/>
      <path class="st6" d="M87.73,176.06h4.25v1.32h-2.82v16.55h2.82v1.32h-4.25v-19.18ZM88.44,184.5h3.15v1.34h-3.15v-1.34Z"/>
      <path class="st6" d="M104.89,194.75c-.41-.47-.62-1.19-.62-2.14v-4.36h1.42v4.38c0,.57.09.97.27,1.22.18.25.49.37.93.37s.75-.12.95-.37.29-.65.29-1.22v-4.17c0-.49-.1-.86-.29-1.11s-.56-.51-1.11-.78l-.66-.27c-.64-.29-1.1-.63-1.37-1.03-.27-.39-.41-.92-.41-1.58v-4.93c0-.95.2-1.67.6-2.15.4-.48,1.07-.73,2-.73s1.61.25,2.03.74c.42.49.63,1.21.63,2.14v5.02h-1.43v-5.04c0-.58-.1-1-.29-1.23-.19-.24-.51-.36-.95-.36s-.73.12-.93.36c-.2.24-.3.65-.3,1.23v4.71c0,.51.1.88.29,1.11.19.23.57.48,1.14.75l.66.3c.66.27,1.12.61,1.4,1,.27.39.41.92.41,1.58v4.41c0,.93-.21,1.64-.62,2.12-.41.48-1.09.73-2.04.73s-1.6-.24-2.01-.71Z"/>
      <path class="st6" d="M116.32,194.67c-.41-.49-.62-1.19-.62-2.08v-13.87c0-.89.21-1.59.62-2.1.41-.5,1.09-.75,2.04-.75s1.58.25,1.99.75c.41.5.62,1.2.62,2.1v13.87c0,.9-.21,1.59-.62,2.08-.41.49-1.08.74-2.01.74s-1.6-.25-2.01-.74ZM119.3,193.75c.16-.23.25-.6.25-1.11v-13.98c0-.53-.08-.91-.25-1.14s-.48-.34-.93-.34-.8.11-.97.34c-.17.23-.26.61-.26,1.14v13.98c0,.51.09.88.26,1.11.17.23.5.34.97.34s.77-.11.93-.34Z"/>
      <path class="st6" d="M127.22,176.06h1.42v17.87h2.74v1.32h-4.17v-19.18Z"/>
      <path class="st6" d="M137.26,194.67c-.41-.49-.62-1.19-.62-2.08v-16.53h1.42v16.58c0,.51.09.88.26,1.11s.5.34.97.34.8-.11.96-.34.25-.6.25-1.11v-16.58h1.42v16.53c0,.9-.2,1.59-.6,2.08-.4.49-1.08.74-2.03.74s-1.63-.25-2.04-.74Z"/>
      <path class="st6" d="M149.47,177.35h-2v-1.29h5.4v1.29h-2v17.9h-1.4v-17.9Z"/>
      <path class="st6" d="M158.38,176.06h1.42v19.18h-1.42v-19.18Z"/>
      <path class="st6" d="M166.64,194.67c-.41-.49-.62-1.19-.62-2.08v-13.87c0-.89.21-1.59.62-2.1s1.09-.75,2.04-.75,1.58.25,1.99.75c.41.5.62,1.2.62,2.1v13.87c0,.9-.21,1.59-.62,2.08-.41.49-1.08.74-2.01.74s-1.6-.25-2.01-.74ZM169.61,193.75c.16-.23.25-.6.25-1.11v-13.98c0-.53-.08-.91-.25-1.14s-.48-.34-.93-.34-.8.11-.97.34c-.17.23-.26.61-.26,1.14v13.98c0,.51.09.88.26,1.11.17.23.5.34.97.34s.77-.11.93-.34Z"/>
      <path class="st6" d="M178.77,177.51h-1.23v-1.45h2.22l2.41,17.73h1.23v1.45h-2.25l-2.38-17.73ZM177.53,177.4h.96l.41,17.84h-1.37v-17.84ZM182.03,176.06h1.37v17.87h-.96l-.41-17.87Z"/>
      <path class="st6" d="M190.15,194.75c-.41-.47-.62-1.19-.62-2.14v-4.36h1.42v4.38c0,.57.09.97.27,1.22.18.25.49.37.93.37s.75-.12.95-.37.29-.65.29-1.22v-4.17c0-.49-.1-.86-.29-1.11s-.56-.51-1.11-.78l-.66-.27c-.64-.29-1.1-.63-1.37-1.03-.27-.39-.41-.92-.41-1.58v-4.93c0-.95.2-1.67.6-2.15.4-.48,1.07-.73,2-.73s1.61.25,2.03.74c.42.49.63,1.21.63,2.14v5.02h-1.43v-5.04c0-.58-.1-1-.29-1.23-.19-.24-.51-.36-.95-.36s-.73.12-.93.36c-.2.24-.3.65-.3,1.23v4.71c0,.51.1.88.29,1.11.19.23.57.48,1.14.75l.66.3c.66.27,1.12.61,1.4,1,.27.39.41.92.41,1.58v4.41c0,.93-.21,1.64-.62,2.12-.41.48-1.09.73-2.04.73s-1.6-.24-2.01-.71Z"/>
    </g>
  </g>
</svg>